<?xml version="1.0" encoding="utf-8"?>
<!-- Generator: Adobe Illustrator 25.4.1, SVG Export Plug-In . SVG Version: 6.00 Build 0)  -->
<svg version="1.1" id="Layer_1" xmlns="http://www.w3.org/2000/svg" xmlns:xlink="http://www.w3.org/1999/xlink" x="0px" y="0px"
	 viewBox="0 0 2304.9 636.3" style="enable-background:new 0 0 2304.9 636.3;" xml:space="preserve">
<style type="text/css">
	.st0{fill:#20294F;}
	.st1{fill:#E0E4E5;}
	.st2{fill:#FFFFFF;}
	.st3{fill:#333333;}
	.st4{fill:#F1EEE8;}
	.st5{fill:#202124;}
	.st6{fill:#F1EEE8;stroke:#F1EEE8;stroke-miterlimit:10;}
	.st7{opacity:0.66;}
	.st8{fill:none;stroke:#E0E4E5;stroke-width:0.5;stroke-miterlimit:10;}
	.st9{fill:#FFFFFF;stroke:#E0E4E5;stroke-width:0.5;stroke-miterlimit:10;}
	.st10{fill:#B7AB95;}
	.st11{fill:none;stroke:#1D1D1B;stroke-width:0.1;stroke-miterlimit:10;}
	.st12{fill:none;stroke:#1D1D1B;stroke-width:9.757406e-02;stroke-miterlimit:10;}
	.st13{fill:#4B4B4B;}
	.st14{fill:#A8A8A8;}
	.st15{fill:#886D34;}
</style>
<g>
	<path class="st1" d="M572.2,52.6H41v531.2h531.2V52.6z"/>
	<g>
		<path class="st0" d="M207.3,250.2l-9.4,19.2h-86.5v31h86.2l-8.9,19.2h-77.3v34.8h95.8l-6.1,19.2h-111V250.2H207.3z"/>
		<path class="st0" d="M522.7,312.4c0,36.7-30,63.6-71,63.6c-41,0-71-27-71-63.6c0-36.7,30-63.6,71-63.6
			C492.7,248.8,522.7,275.3,522.7,312.4z M402.7,312.4c0,26.4,19.8,44.3,49,44.3c29.2,0,49-17.9,49-44.3c0-26.4-19.8-44.3-49-44.3
			C422.6,268.1,402.7,285.6,402.7,312.4z"/>
		<path class="st0" d="M102.5,498.9c6.1,8.8,14.2,15.7,23.7,20.4c9.5,4.7,19.9,6.9,30.4,6.4c21.8,0,37.5-7.4,37.5-18.5
			c0-13-10.1-14.1-45.5-18.2c-30.9-3.6-52.8-8.8-52.8-32.8c0-22.4,21.5-38.7,55.3-38.7c26.9,0,51.1,10.3,61.4,26.5l-15.4,13.3
			c-8.9-13.3-25.7-20.7-46.5-20.7c-24,0-34.1,8.4-34.1,17.4c0,8.9,7.8,12.3,39.4,15.8c36.8,4.4,59.6,8.4,59.6,34.8
			c0,26.4-26.1,40.1-59,40.1c-29.8,0-57.5-12.5-68.8-31.5L102.5,498.9z"/>
		<path class="st0" d="M307.1,438.6v94.6l-21.5,9.7V438.6h-54.7v-19.2h131v19.2H307.1z"/>
		<path class="st0" d="M411,533.2l-21.5,9.8V419.4h75.4c26.5,0,44.8,12.9,44.8,37.8c0.2,8.5-2.4,16.8-7.5,23.4
			c-5.2,6.6-12.5,11.1-20.7,12.5l30.9,49.7h-24.6L458.2,495h-47.4L411,533.2z M463.7,476.2c15.4,0,24.6-6.9,24.6-19
			c0-12-9-19-24.6-19H411v37.8h52.7V476.2z"/>
		<path class="st0" d="M289.8,374.5l0.5,0.7H305l65.9-125.1h-15.8l-57.5,87l-57.4-87h-15.9L289.8,374.5z"/>
	</g>
</g>
<g>
	<path class="st1" d="M937.1,105.8v33.1H769v53.3h151.2v33.1H769v59.8h168v33.1h-205V105.8H937.1z"/>
	<path class="st1" d="M1077.2,318.2L968.4,105.8h40.5l90.5,176.9l90.5-176.9h40.2l-109.1,212.4H1077.2z"/>
	<path class="st1" d="M1490.1,211.9c0,63.1-52.7,109.5-124.9,109.5s-124.8-46.4-124.8-109.5s52.6-109.4,124.8-109.4
		S1490.1,149,1490.1,211.9z M1279.7,211.9c0,45.3,34.6,76.1,85.8,76.1c51.2,0,85.7-31.2,85.7-76.1s-34.5-76-85.7-76
		C1314.3,136,1279.7,166.5,1279.7,211.9z"/>
	<path class="st1" d="M1545,242.4c10.6,14.9,24.9,27,41.3,35.1c16.5,8.1,34.7,11.9,53,11.1c38.1,0,65.6-12.8,65.6-31.2
		c0-22.5-17.8-24.2-79.9-31.2c-54.1-6.2-92.6-15.1-92.6-56.5c0-38.4,37.9-66.5,97.1-66.5c47,0,89.6,17.7,107.6,45.5l-27.1,22.2
		c-15.4-22.8-45-35.5-81.9-35.5c-41.6,0-59.8,14.5-59.8,29.9c0,15.4,13.6,20.8,69.3,27.6c64.4,7.4,104,14.5,104,59.7
		c0,45.3-45.9,68.9-103.5,68.9c-52,0-100.8-21.5-120.7-53.8L1545,242.4z"/>
	<path class="st1" d="M1903.7,138.9v179.3h-37.6V138.9h-95.8v-33.1h229.5v33.1H1903.7z"/>
	<path class="st1" d="M2085.8,318.2h-37.9V105.8h132.2c46.4,0,78.3,22.2,78.3,65c0.5,14.5-4.2,28.8-13.3,40.1
		c-9.1,11.3-22,19-36.3,21.7l55,85.5h-43.3l-52-82.2h-83.2L2085.8,318.2z M2178.1,203.7c27.3,0,43.2-11.9,43.2-32.6
		c0-20.7-15.9-32.5-43.2-32.5h-92.3v65H2178.1z"/>
</g>
<g>
	<path class="st14" d="M731.9,464.7v-53.4H765v6.9H740v16.3h22.7v6.9H740v23.3H731.9z"/>
	<path class="st14" d="M774,464.7v-40.1h7.5v6.4h0.4c0.7-2.2,2-3.9,3.9-5.1c1.9-1.2,4-1.9,6.3-1.9c0.5,0,1.1,0,1.7,0.1
		c0.7,0,1.2,0.1,1.6,0.1v7.5c-0.3-0.1-0.9-0.2-1.7-0.3c-0.8-0.1-1.6-0.2-2.4-0.2c-1.8,0-3.5,0.4-4.9,1.2c-1.4,0.8-2.6,1.8-3.4,3.2
		c-0.8,1.4-1.3,2.9-1.3,4.6v24.5H774z"/>
	<path class="st14" d="M817.9,465.6c-3.8,0-7-0.9-9.8-2.6c-2.8-1.7-5-4.1-6.5-7.2c-1.5-3.1-2.3-6.7-2.3-10.8c0-4.2,0.8-7.8,2.3-10.9
		c1.5-3.1,3.7-5.5,6.5-7.2c2.8-1.7,6.1-2.6,9.8-2.6c3.8,0,7,0.9,9.8,2.6c2.8,1.7,5,4.1,6.5,7.2c1.5,3.1,2.3,6.7,2.3,10.9
		c0,4.1-0.8,7.8-2.3,10.8c-1.5,3.1-3.7,5.5-6.5,7.2C824.9,464.7,821.6,465.6,817.9,465.6z M817.9,459c2.4,0,4.4-0.6,6-1.9
		c1.6-1.3,2.8-3,3.6-5.1c0.8-2.1,1.2-4.5,1.2-7.1c0-2.6-0.4-4.9-1.2-7.1c-0.8-2.1-2-3.9-3.6-5.2c-1.6-1.3-3.6-2-6-2
		c-2.5,0-4.5,0.7-6.1,2c-1.6,1.3-2.8,3-3.6,5.2c-0.8,2.1-1.2,4.5-1.2,7.1c0,2.6,0.4,4.9,1.2,7.1c0.8,2.1,2,3.9,3.6,5.1
		C813.4,458.4,815.5,459,817.9,459z"/>
	<path class="st14" d="M845.5,464.7v-40.1h7.5v6.5h0.5c0.8-2.2,2.2-3.9,4.1-5.2c1.9-1.2,4.2-1.9,6.8-1.9c2.7,0,4.9,0.6,6.7,1.9
		c1.8,1.3,3.2,3,4,5.2h0.4c1-2.1,2.5-3.9,4.6-5.1c2.1-1.3,4.6-1.9,7.5-1.9c3.6,0,6.6,1.1,8.9,3.4c2.3,2.3,3.5,5.7,3.5,10.3v26.9
		h-7.8v-26.1c0-2.7-0.7-4.7-2.2-5.9c-1.5-1.2-3.2-1.8-5.3-1.8c-2.5,0-4.5,0.8-5.9,2.3c-1.4,1.6-2.1,3.5-2.1,6v25.5h-7.8v-26.6
		c0-2.2-0.7-3.9-2-5.2c-1.4-1.3-3.1-2-5.3-2c-1.5,0-2.8,0.4-4.1,1.2c-1.2,0.8-2.2,1.8-3,3.2c-0.8,1.4-1.1,3-1.1,4.8v24.7H845.5z"/>
	<path class="st14" d="M975.2,428.7h-8.1c-0.3-1.7-0.9-3.3-1.8-4.6c-0.8-1.3-1.9-2.4-3.1-3.4c-1.2-0.9-2.6-1.6-4.1-2.1
		c-1.5-0.5-3.1-0.7-4.8-0.7c-3.1,0-5.8,0.8-8.3,2.3c-2.4,1.6-4.3,3.8-5.7,6.8c-1.4,3-2.1,6.6-2.1,11c0,4.3,0.7,8,2.1,11
		c1.4,3,3.3,5.2,5.7,6.8c2.4,1.5,5.2,2.3,8.2,2.3c1.7,0,3.3-0.2,4.8-0.7c1.5-0.5,2.9-1.1,4.1-2c1.2-0.9,2.3-2,3.1-3.3
		c0.9-1.3,1.5-2.8,1.8-4.5l8.1,0c-0.4,2.6-1.3,5-2.5,7.2c-1.2,2.2-2.8,4.1-4.8,5.7c-1.9,1.6-4.2,2.8-6.6,3.7
		c-2.5,0.9-5.2,1.3-8.1,1.3c-4.6,0-8.7-1.1-12.4-3.3c-3.6-2.2-6.5-5.4-8.5-9.5c-2.1-4.1-3.1-9-3.1-14.7c0-5.7,1-10.6,3.1-14.7
		c2.1-4.1,4.9-7.2,8.6-9.4c3.6-2.2,7.7-3.3,12.3-3.3c2.8,0,5.5,0.4,7.9,1.2c2.5,0.8,4.7,2,6.6,3.5c2,1.6,3.6,3.4,4.9,5.7
		C973.9,423.3,974.7,425.8,975.2,428.7z"/>
	<path class="st14" d="M1001.3,465.6c-3.8,0-7-0.9-9.8-2.6c-2.8-1.7-5-4.1-6.5-7.2c-1.5-3.1-2.3-6.7-2.3-10.8
		c0-4.2,0.8-7.8,2.3-10.9c1.5-3.1,3.7-5.5,6.5-7.2c2.8-1.7,6.1-2.6,9.8-2.6c3.8,0,7,0.9,9.8,2.6c2.8,1.7,5,4.1,6.5,7.2
		c1.5,3.1,2.3,6.7,2.3,10.9c0,4.1-0.8,7.8-2.3,10.8c-1.5,3.1-3.7,5.5-6.5,7.2C1008.3,464.7,1005.1,465.6,1001.3,465.6z M1001.3,459
		c2.4,0,4.4-0.6,6-1.9c1.6-1.3,2.8-3,3.6-5.1c0.8-2.1,1.2-4.5,1.2-7.1c0-2.6-0.4-4.9-1.2-7.1c-0.8-2.1-2-3.9-3.6-5.2
		c-1.6-1.3-3.6-2-6-2c-2.5,0-4.5,0.7-6.1,2c-1.6,1.3-2.8,3-3.6,5.2c-0.8,2.1-1.2,4.5-1.2,7.1c0,2.6,0.4,4.9,1.2,7.1
		c0.8,2.1,2,3.9,3.6,5.1C996.8,458.4,998.9,459,1001.3,459z"/>
	<path class="st14" d="M1028.9,464.7v-40.1h7.5v6.5h0.5c0.8-2.2,2.2-3.9,4.1-5.2c1.9-1.2,4.2-1.9,6.8-1.9c2.7,0,4.9,0.6,6.7,1.9
		c1.8,1.3,3.2,3,4,5.2h0.4c1-2.1,2.5-3.9,4.6-5.1c2.1-1.3,4.6-1.9,7.5-1.9c3.6,0,6.6,1.1,8.9,3.4c2.3,2.3,3.5,5.7,3.5,10.3v26.9
		h-7.8v-26.1c0-2.7-0.7-4.7-2.2-5.9c-1.5-1.2-3.2-1.8-5.3-1.8c-2.5,0-4.5,0.8-5.9,2.3c-1.4,1.6-2.1,3.5-2.1,6v25.5h-7.8v-26.6
		c0-2.2-0.7-3.9-2-5.2c-1.4-1.3-3.1-2-5.3-2c-1.5,0-2.8,0.4-4.1,1.2c-1.2,0.8-2.2,1.8-3,3.2c-0.8,1.4-1.1,3-1.1,4.8v24.7H1028.9z"/>
	<path class="st14" d="M1094,464.7v-40.1h7.5v6.5h0.5c0.8-2.2,2.2-3.9,4.1-5.2c1.9-1.2,4.2-1.9,6.8-1.9c2.7,0,4.9,0.6,6.7,1.9
		c1.8,1.3,3.2,3,4,5.2h0.4c1-2.1,2.5-3.9,4.6-5.1c2.1-1.3,4.6-1.9,7.5-1.9c3.6,0,6.6,1.1,8.9,3.4c2.3,2.3,3.5,5.7,3.5,10.3v26.9
		h-7.8v-26.1c0-2.7-0.7-4.7-2.2-5.9c-1.5-1.2-3.2-1.8-5.3-1.8c-2.5,0-4.5,0.8-5.9,2.3c-1.4,1.6-2.1,3.5-2.1,6v25.5h-7.8v-26.6
		c0-2.2-0.7-3.9-2-5.2c-1.4-1.3-3.1-2-5.3-2c-1.5,0-2.8,0.4-4.1,1.2c-1.2,0.8-2.2,1.8-3,3.2c-0.8,1.4-1.1,3-1.1,4.8v24.7H1094z"/>
	<path class="st14" d="M1175.9,465.6c-3.8,0-7-0.9-9.8-2.6c-2.8-1.7-5-4.1-6.5-7.2c-1.5-3.1-2.3-6.7-2.3-10.8
		c0-4.2,0.8-7.8,2.3-10.9s3.7-5.5,6.5-7.2c2.8-1.7,6.1-2.6,9.8-2.6c3.8,0,7,0.9,9.8,2.6c2.8,1.7,5,4.1,6.5,7.2s2.3,6.7,2.3,10.9
		c0,4.1-0.8,7.8-2.3,10.8c-1.5,3.1-3.7,5.5-6.5,7.2C1183,464.7,1179.7,465.6,1175.9,465.6z M1175.9,459c2.4,0,4.4-0.6,6.1-1.9
		c1.6-1.3,2.8-3,3.6-5.1c0.8-2.1,1.2-4.5,1.2-7.1c0-2.6-0.4-4.9-1.2-7.1c-0.8-2.1-2-3.9-3.6-5.2c-1.6-1.3-3.6-2-6.1-2
		c-2.5,0-4.5,0.7-6.1,2c-1.6,1.3-2.8,3-3.6,5.2c-0.8,2.1-1.2,4.5-1.2,7.1c0,2.6,0.4,4.9,1.2,7.1c0.8,2.1,2,3.9,3.6,5.1
		C1171.5,458.4,1173.5,459,1175.9,459z"/>
	<path class="st14" d="M1218.5,465.5c-3.2,0-6.1-0.8-8.6-2.5c-2.5-1.7-4.5-4-5.9-7.1c-1.4-3.1-2.2-6.8-2.2-11.1
		c0-4.3,0.7-8,2.2-11.1s3.4-5.4,6-7.1s5.4-2.5,8.6-2.5c2.5,0,4.5,0.4,6,1.2c1.5,0.8,2.7,1.8,3.5,2.9c0.8,1.1,1.5,2.1,2,2.9h0.5
		v-19.8h7.8v53.4h-7.6v-6.2h-0.7c-0.5,0.8-1.1,1.8-2,2.9c-0.9,1.1-2.1,2.1-3.6,2.9C1222.9,465.1,1220.9,465.5,1218.5,465.5z
		 M1220.2,458.9c2.2,0,4.1-0.6,5.7-1.8c1.6-1.2,2.7-2.8,3.5-5c0.8-2.1,1.2-4.6,1.2-7.4c0-2.8-0.4-5.2-1.2-7.3
		c-0.8-2.1-2-3.7-3.5-4.9c-1.6-1.2-3.5-1.7-5.7-1.7c-2.3,0-4.3,0.6-5.9,1.8c-1.6,1.2-2.7,2.9-3.5,5c-0.8,2.1-1.2,4.5-1.2,7.1
		c0,2.7,0.4,5.1,1.2,7.2c0.8,2.1,2,3.8,3.6,5.1C1215.9,458.3,1217.9,458.9,1220.2,458.9z"/>
	<path class="st14" d="M1253.6,418.5c-1.4,0-2.5-0.5-3.5-1.4c-1-0.9-1.5-2-1.5-3.3c0-1.3,0.5-2.4,1.5-3.3c1-0.9,2.1-1.4,3.5-1.4
		c1.4,0,2.5,0.5,3.5,1.4c1,0.9,1.4,2,1.4,3.3c0,1.3-0.5,2.4-1.4,3.3C1256.1,418.1,1254.9,418.5,1253.6,418.5z M1249.6,464.7v-40.1
		h7.8v40.1H1249.6z"/>
	<path class="st14" d="M1286.8,424.7v6.3H1265v-6.3H1286.8z M1270.8,415.1h7.8V453c0,1.5,0.2,2.7,0.7,3.4s1,1.3,1.8,1.5
		c0.7,0.3,1.5,0.4,2.4,0.4c0.6,0,1.2,0,1.6-0.1c0.5-0.1,0.8-0.2,1.1-0.2l1.4,6.4c-0.5,0.2-1.1,0.4-1.9,0.5c-0.8,0.2-1.9,0.3-3.1,0.3
		c-2.1,0-4-0.3-5.7-1.1c-1.8-0.8-3.2-1.9-4.3-3.5c-1.1-1.6-1.6-3.6-1.6-6V415.1z"/>
	<path class="st14" d="M1300.6,479.8c-1.2,0-2.2-0.1-3.2-0.3c-1-0.2-1.7-0.4-2.1-0.6l1.9-6.4c1.4,0.4,2.7,0.6,3.8,0.5
		c1.1-0.1,2.1-0.5,3-1.3c0.9-0.8,1.6-2.1,2.3-3.8l1-2.7l-14.7-40.6h8.3l10.1,31.1h0.4l10.1-31.1h8.4l-16.5,45.4
		c-0.8,2.1-1.7,3.9-2.9,5.3c-1.2,1.5-2.6,2.5-4.2,3.3C1304.6,479.4,1302.7,479.8,1300.6,479.8z"/>
	<path class="st14" d="M1404.1,438c0,5.7-1,10.6-3.1,14.7c-2.1,4.1-4.9,7.2-8.6,9.4c-3.6,2.2-7.7,3.3-12.3,3.3
		c-4.6,0-8.7-1.1-12.4-3.3c-3.6-2.2-6.5-5.4-8.6-9.5c-2.1-4.1-3.1-9-3.1-14.7c0-5.7,1-10.6,3.1-14.7c2.1-4.1,4.9-7.2,8.6-9.4
		c3.6-2.2,7.8-3.3,12.4-3.3c4.6,0,8.7,1.1,12.3,3.3c3.6,2.2,6.5,5.3,8.6,9.4C1403.1,427.4,1404.1,432.3,1404.1,438z M1396.2,438
		c0-4.3-0.7-8-2.1-11c-1.4-3-3.3-5.2-5.7-6.8c-2.4-1.5-5.2-2.3-8.2-2.3c-3.1,0-5.8,0.8-8.2,2.3c-2.4,1.5-4.3,3.8-5.7,6.8
		c-1.4,3-2.1,6.6-2.1,11c0,4.3,0.7,8,2.1,11c1.4,3,3.3,5.2,5.7,6.8c2.4,1.5,5.2,2.3,8.2,2.3c3.1,0,5.8-0.8,8.2-2.3
		c2.4-1.5,4.3-3.8,5.7-6.8C1395.5,446.1,1396.2,442.4,1396.2,438z"/>
	<path class="st14" d="M1439.1,448.1v-23.4h7.8v40.1h-7.7v-6.9h-0.4c-0.9,2.1-2.4,3.9-4.4,5.3c-2,1.4-4.5,2.1-7.6,2.1
		c-2.6,0-4.8-0.6-6.8-1.7c-2-1.1-3.5-2.8-4.6-5.1c-1.1-2.2-1.7-5-1.7-8.3v-25.5h7.8v24.5c0,2.7,0.8,4.9,2.3,6.5
		c1.5,1.6,3.5,2.4,5.9,2.4c1.5,0,2.9-0.4,4.4-1.1c1.5-0.7,2.7-1.8,3.6-3.3C1438.7,452.3,1439.1,450.4,1439.1,448.1z"/>
	<path class="st14" d="M1476.3,424.7v6.3h-21.9v-6.3H1476.3z M1460.3,415.1h7.8V453c0,1.5,0.2,2.7,0.7,3.4c0.5,0.8,1,1.3,1.8,1.5
		c0.7,0.3,1.5,0.4,2.4,0.4c0.6,0,1.2,0,1.6-0.1c0.5-0.1,0.8-0.2,1.1-0.2l1.4,6.4c-0.5,0.2-1.1,0.4-1.9,0.5c-0.8,0.2-1.9,0.3-3.1,0.3
		c-2.1,0-4-0.3-5.7-1.1c-1.8-0.8-3.2-1.9-4.3-3.5c-1.1-1.6-1.6-3.6-1.6-6V415.1z"/>
	<path class="st14" d="M1514.5,434.5l-7.1,1.3c-0.3-0.9-0.8-1.8-1.4-2.6c-0.6-0.8-1.5-1.5-2.6-2c-1.1-0.5-2.4-0.8-4-0.8
		c-2.2,0-4.1,0.5-5.5,1.5c-1.5,1-2.2,2.2-2.2,3.8c0,1.3,0.5,2.4,1.5,3.2s2.6,1.5,4.8,2l6.4,1.5c3.7,0.9,6.4,2.2,8.2,3.9
		c1.8,1.8,2.7,4.1,2.7,6.9c0,2.4-0.7,4.5-2.1,6.4c-1.4,1.9-3.3,3.3-5.8,4.4c-2.5,1.1-5.3,1.6-8.5,1.6c-4.5,0-8.1-1-11-2.9
		c-2.8-1.9-4.6-4.7-5.2-8.2l7.5-1.1c0.5,2,1.4,3.4,2.9,4.4c1.5,1,3.4,1.5,5.7,1.5c2.6,0,4.6-0.5,6.1-1.6c1.5-1.1,2.3-2.4,2.3-3.9
		c0-1.3-0.5-2.3-1.4-3.2c-0.9-0.9-2.4-1.5-4.3-1.9l-6.8-1.5c-3.7-0.8-6.5-2.2-8.3-4.1c-1.8-1.9-2.7-4.2-2.7-7.1c0-2.4,0.7-4.4,2-6.2
		c1.3-1.8,3.1-3.2,5.5-4.2c2.3-1,5-1.5,8-1.5c4.3,0,7.7,0.9,10.2,2.8S1513.7,431.4,1514.5,434.5z"/>
	<path class="st14" d="M1540.9,465.6c-3.8,0-7-0.9-9.8-2.6c-2.8-1.7-5-4.1-6.5-7.2c-1.5-3.1-2.3-6.7-2.3-10.8
		c0-4.2,0.8-7.8,2.3-10.9s3.7-5.5,6.5-7.2c2.8-1.7,6.1-2.6,9.8-2.6c3.8,0,7,0.9,9.8,2.6c2.8,1.7,5,4.1,6.5,7.2s2.3,6.7,2.3,10.9
		c0,4.1-0.8,7.8-2.3,10.8c-1.5,3.1-3.7,5.5-6.5,7.2C1547.9,464.7,1544.6,465.6,1540.9,465.6z M1540.9,459c2.4,0,4.4-0.6,6-1.9
		c1.6-1.3,2.8-3,3.6-5.1c0.8-2.1,1.2-4.5,1.2-7.1c0-2.6-0.4-4.9-1.2-7.1c-0.8-2.1-2-3.9-3.6-5.2c-1.6-1.3-3.6-2-6-2
		c-2.5,0-4.5,0.7-6.1,2c-1.6,1.3-2.8,3-3.6,5.2c-0.8,2.1-1.2,4.5-1.2,7.1c0,2.6,0.4,4.9,1.2,7.1c0.8,2.1,2,3.9,3.6,5.1
		C1536.4,458.4,1538.5,459,1540.9,459z"/>
	<path class="st14" d="M1593.8,448.1v-23.4h7.8v40.1h-7.7v-6.9h-0.4c-0.9,2.1-2.4,3.9-4.4,5.3c-2,1.4-4.5,2.1-7.6,2.1
		c-2.6,0-4.8-0.6-6.8-1.7c-2-1.1-3.5-2.8-4.6-5.1c-1.1-2.2-1.7-5-1.7-8.3v-25.5h7.8v24.5c0,2.7,0.8,4.9,2.3,6.5
		c1.5,1.6,3.5,2.4,5.9,2.4c1.5,0,2.9-0.4,4.4-1.1c1.5-0.7,2.7-1.8,3.6-3.3C1593.4,452.3,1593.8,450.4,1593.8,448.1z"/>
	<path class="st14" d="M1612.3,464.7v-40.1h7.5v6.4h0.4c0.7-2.2,2-3.9,3.9-5.1c1.9-1.2,4-1.9,6.3-1.9c0.5,0,1.1,0,1.7,0.1
		c0.7,0,1.2,0.1,1.6,0.1v7.5c-0.3-0.1-0.9-0.2-1.7-0.3c-0.8-0.1-1.6-0.2-2.4-0.2c-1.8,0-3.5,0.4-4.9,1.2c-1.4,0.8-2.6,1.8-3.4,3.2
		c-0.8,1.4-1.3,2.9-1.3,4.6v24.5H1612.3z"/>
	<path class="st14" d="M1656.2,465.6c-3.9,0-7.2-0.9-10-2.6c-2.8-1.8-4.9-4.2-6.4-7.3c-1.5-3.1-2.2-6.7-2.2-10.7
		c0-4.1,0.8-7.7,2.3-10.8c1.5-3.1,3.7-5.6,6.5-7.3c2.8-1.8,6.1-2.6,9.8-2.6c3,0,5.8,0.6,8.1,1.7c2.4,1.1,4.3,2.7,5.8,4.7
		c1.5,2,2.3,4.4,2.6,7.1h-7.6c-0.4-1.9-1.4-3.5-2.9-4.9c-1.5-1.4-3.5-2-6-2c-2.2,0-4.1,0.6-5.7,1.7c-1.6,1.1-2.9,2.8-3.8,4.9
		c-0.9,2.1-1.4,4.6-1.4,7.4c0,2.9,0.4,5.4,1.3,7.6c0.9,2.1,2.1,3.8,3.8,4.9s3.5,1.7,5.7,1.7c1.5,0,2.8-0.3,4-0.8
		c1.2-0.5,2.2-1.3,3-2.4c0.8-1,1.4-2.3,1.7-3.7h7.6c-0.3,2.6-1.1,4.9-2.5,6.9s-3.3,3.6-5.6,4.8
		C1662.1,465,1659.3,465.6,1656.2,465.6z"/>
	<path class="st14" d="M1685.1,418.5c-1.4,0-2.5-0.5-3.5-1.4c-1-0.9-1.5-2-1.5-3.3c0-1.3,0.5-2.4,1.5-3.3c1-0.9,2.1-1.4,3.5-1.4
		c1.4,0,2.5,0.5,3.5,1.4c1,0.9,1.4,2,1.4,3.3c0,1.3-0.5,2.4-1.4,3.3C1687.6,418.1,1686.5,418.5,1685.1,418.5z M1681.2,464.7v-40.1
		h7.8v40.1H1681.2z"/>
	<path class="st14" d="M1707.5,441v23.8h-7.8v-40.1h7.5v6.5h0.5c0.9-2.1,2.4-3.8,4.3-5.1c2-1.3,4.5-1.9,7.5-1.9
		c2.7,0,5.1,0.6,7.2,1.7c2.1,1.1,3.6,2.8,4.8,5.1c1.1,2.2,1.7,5,1.7,8.3v25.5h-7.8v-24.5c0-2.9-0.8-5.2-2.3-6.8
		c-1.5-1.6-3.6-2.5-6.2-2.5c-1.8,0-3.4,0.4-4.8,1.2c-1.4,0.8-2.5,1.9-3.3,3.4C1707.9,437,1707.5,438.9,1707.5,441z"/>
	<path class="st14" d="M1760.6,480.6c-3.2,0-5.9-0.4-8.2-1.3s-4.2-1.9-5.6-3.3c-1.4-1.4-2.5-2.9-3.2-4.5l6.7-2.8
		c0.5,0.8,1.1,1.6,1.9,2.4c0.8,0.9,1.9,1.6,3.2,2.2c1.4,0.6,3.1,0.9,5.3,0.9c3,0,5.4-0.7,7.3-2.2c1.9-1.4,2.9-3.7,2.9-6.8v-7.9h-0.5
		c-0.5,0.9-1.1,1.8-2,2.8c-0.9,1-2.1,1.9-3.6,2.7c-1.5,0.8-3.5,1.1-6,1.1c-3.2,0-6-0.7-8.5-2.2c-2.5-1.5-4.5-3.7-6-6.6
		c-1.5-2.9-2.2-6.5-2.2-10.8c0-4.3,0.7-7.9,2.2-11c1.5-3,3.4-5.4,6-7c2.5-1.6,5.4-2.4,8.6-2.4c2.5,0,4.5,0.4,6,1.2
		c1.5,0.8,2.7,1.8,3.6,2.9c0.9,1.1,1.5,2.1,2,2.9h0.6v-6.5h7.6v40.9c0,3.4-0.8,6.3-2.4,8.5c-1.6,2.2-3.8,3.8-6.5,4.9
		C1767,480.1,1764,480.6,1760.6,480.6z M1760.5,457.7c2.2,0,4.1-0.5,5.7-1.6c1.6-1,2.7-2.6,3.5-4.5c0.8-2,1.2-4.3,1.2-7.1
		c0-2.7-0.4-5.1-1.2-7.1c-0.8-2-2-3.7-3.5-4.8c-1.6-1.2-3.5-1.7-5.7-1.7c-2.3,0-4.3,0.6-5.9,1.8c-1.6,1.2-2.7,2.8-3.5,4.9
		c-0.8,2.1-1.2,4.4-1.2,6.9c0,2.6,0.4,4.9,1.2,6.9c0.8,2,2,3.5,3.6,4.6C1756.2,457.1,1758.2,457.7,1760.5,457.7z"/>
	<path class="st14" d="M750,527.7v6.3h-21.9v-6.3H750z M734,518.1h7.8V556c0,1.5,0.2,2.7,0.7,3.4s1,1.3,1.8,1.5
		c0.7,0.3,1.5,0.4,2.4,0.4c0.6,0,1.2,0,1.6-0.1c0.5-0.1,0.8-0.2,1.1-0.2l1.4,6.4c-0.5,0.2-1.1,0.4-1.9,0.5c-0.8,0.2-1.9,0.3-3.1,0.3
		c-2.1,0-4-0.3-5.7-1.1c-1.8-0.8-3.2-1.9-4.3-3.5c-1.1-1.6-1.6-3.6-1.6-6V518.1z"/>
	<path class="st14" d="M775.3,568.6c-3.8,0-7-0.9-9.8-2.6c-2.8-1.7-5-4.1-6.5-7.2c-1.5-3.1-2.3-6.7-2.3-10.8c0-4.2,0.8-7.8,2.3-10.9
		c1.5-3.1,3.7-5.5,6.5-7.2c2.8-1.7,6.1-2.6,9.8-2.6c3.8,0,7,0.9,9.8,2.6c2.8,1.7,5,4.1,6.5,7.2c1.5,3.1,2.3,6.7,2.3,10.9
		c0,4.1-0.8,7.8-2.3,10.8c-1.5,3.1-3.7,5.5-6.5,7.2C782.3,567.7,779,568.6,775.3,568.6z M775.3,562c2.4,0,4.4-0.6,6-1.9
		c1.6-1.3,2.8-3,3.6-5.1c0.8-2.1,1.2-4.5,1.2-7.1c0-2.6-0.4-4.9-1.2-7.1c-0.8-2.1-2-3.9-3.6-5.2c-1.6-1.3-3.6-2-6-2
		c-2.5,0-4.5,0.7-6.1,2c-1.6,1.3-2.8,3-3.6,5.2c-0.8,2.1-1.2,4.5-1.2,7.1c0,2.6,0.4,4.9,1.2,7.1c0.8,2.1,2,3.9,3.6,5.1
		C770.8,561.4,772.9,562,775.3,562z"/>
	<path class="st14" d="M852.3,528.4c-0.3-2.5-1.4-4.4-3.4-5.7c-2-1.4-4.6-2-7.6-2c-2.2,0-4.1,0.3-5.7,1c-1.6,0.7-2.8,1.6-3.7,2.8
		c-0.9,1.2-1.3,2.5-1.3,4.1c0,1.3,0.3,2.4,0.9,3.3c0.6,0.9,1.4,1.7,2.4,2.3c1,0.6,2,1.1,3.2,1.5c1.1,0.4,2.2,0.7,3.3,1l5.2,1.4
		c1.7,0.4,3.4,1,5.2,1.7c1.8,0.7,3.4,1.7,5,2.8s2.8,2.6,3.7,4.3c0.9,1.7,1.4,3.8,1.4,6.2c0,3-0.8,5.7-2.3,8.1
		c-1.6,2.3-3.8,4.2-6.8,5.6c-2.9,1.4-6.5,2-10.7,2c-4,0-7.5-0.6-10.4-1.9c-2.9-1.3-5.2-3.1-6.9-5.4c-1.7-2.3-2.6-5.1-2.7-8.3h8.1
		c0.2,1.9,0.8,3.5,1.9,4.8c1.1,1.3,2.5,2.2,4.3,2.8c1.7,0.6,3.6,0.9,5.7,0.9c2.3,0,4.3-0.4,6.1-1.1c1.8-0.7,3.2-1.7,4.2-3
		c1-1.3,1.5-2.8,1.5-4.6c0-1.6-0.4-2.9-1.3-3.9c-0.9-1-2.1-1.8-3.6-2.5c-1.5-0.7-3.2-1.2-5.2-1.7l-6.3-1.7
		c-4.3-1.2-7.7-2.9-10.2-5.1c-2.5-2.3-3.7-5.3-3.7-9c0-3.1,0.8-5.8,2.5-8.1c1.7-2.3,3.9-4.1,6.8-5.4c2.9-1.3,6.1-1.9,9.6-1.9
		c3.6,0,6.8,0.6,9.6,1.9c2.8,1.3,5,3,6.6,5.2c1.6,2.2,2.4,4.8,2.5,7.6H852.3z"/>
	<path class="st14" d="M888.7,527.7v6.3h-21.9v-6.3H888.7z M872.7,518.1h7.8V556c0,1.5,0.2,2.7,0.7,3.4c0.5,0.8,1,1.3,1.8,1.5
		c0.7,0.3,1.5,0.4,2.4,0.4c0.6,0,1.2,0,1.6-0.1c0.5-0.1,0.8-0.2,1.1-0.2l1.4,6.4c-0.5,0.2-1.1,0.4-1.9,0.5c-0.8,0.2-1.9,0.3-3.1,0.3
		c-2.1,0-4-0.3-5.7-1.1c-1.8-0.8-3.2-1.9-4.3-3.5c-1.1-1.6-1.6-3.6-1.6-6V518.1z"/>
	<path class="st14" d="M897.5,567.8v-40.1h7.5v6.4h0.4c0.7-2.2,2-3.9,3.9-5.1c1.9-1.2,4-1.9,6.3-1.9c0.5,0,1.1,0,1.7,0.1
		c0.7,0,1.2,0.1,1.6,0.1v7.5c-0.3-0.1-0.9-0.2-1.7-0.3c-0.8-0.1-1.6-0.2-2.4-0.2c-1.8,0-3.5,0.4-4.9,1.2c-1.4,0.8-2.6,1.8-3.4,3.2
		c-0.8,1.4-1.3,2.9-1.3,4.6v24.5H897.5z"/>
	<path class="st14" d="M937.2,568.6c-2.5,0-4.8-0.5-6.9-1.4c-2-0.9-3.7-2.3-4.9-4.1c-1.2-1.8-1.8-4-1.8-6.6c0-2.3,0.4-4.1,1.3-5.6
		c0.9-1.5,2-2.6,3.5-3.5c1.5-0.8,3.1-1.5,5-1.9c1.8-0.4,3.7-0.8,5.6-1c2.4-0.3,4.3-0.5,5.8-0.7c1.5-0.2,2.6-0.5,3.3-0.9
		c0.7-0.4,1-1.1,1-2v-0.2c0-2.3-0.6-4-1.9-5.3c-1.3-1.3-3.2-1.9-5.7-1.9c-2.6,0-4.7,0.6-6.2,1.7c-1.5,1.2-2.5,2.4-3.1,3.9l-7.3-1.7
		c0.9-2.4,2.1-4.4,3.8-5.9c1.7-1.5,3.6-2.6,5.8-3.3c2.2-0.7,4.5-1,6.9-1c1.6,0,3.3,0.2,5.1,0.6c1.8,0.4,3.5,1.1,5.1,2
		c1.6,1,2.9,2.4,3.9,4.2c1,1.8,1.5,4.2,1.5,7.1v26.6h-7.6v-5.5h-0.3c-0.5,1-1.3,2-2.3,3c-1,1-2.3,1.8-3.9,2.4
		C941.3,568.3,939.4,568.6,937.2,568.6z M938.9,562.4c2.2,0,4-0.4,5.5-1.3c1.5-0.9,2.7-2,3.5-3.4c0.8-1.4,1.2-2.9,1.2-4.4v-5.2
		c-0.3,0.3-0.8,0.5-1.6,0.8c-0.8,0.2-1.7,0.4-2.7,0.6s-2,0.3-2.9,0.4c-1,0.1-1.8,0.2-2.4,0.3c-1.5,0.2-2.9,0.5-4.1,1
		c-1.2,0.5-2.2,1.1-3,1.9c-0.7,0.8-1.1,2-1.1,3.4c0,1.9,0.7,3.4,2.1,4.4C934.9,561.9,936.7,562.4,938.9,562.4z"/>
	<path class="st14" d="M986.3,527.7v6.3h-21.9v-6.3H986.3z M970.3,518.1h7.8V556c0,1.5,0.2,2.7,0.7,3.4c0.5,0.8,1,1.3,1.8,1.5
		c0.7,0.3,1.5,0.4,2.4,0.4c0.6,0,1.2,0,1.6-0.1c0.5-0.1,0.8-0.2,1.1-0.2l1.4,6.4c-0.5,0.2-1.1,0.4-1.9,0.5c-0.8,0.2-1.9,0.3-3.1,0.3
		c-2.1,0-4-0.3-5.7-1.1c-1.8-0.8-3.2-1.9-4.3-3.5c-1.1-1.6-1.6-3.6-1.6-6V518.1z"/>
	<path class="st14" d="M1011.9,568.6c-4,0-7.3-0.8-10.2-2.5c-2.8-1.7-5-4.1-6.6-7.2c-1.5-3.1-2.3-6.7-2.3-10.9
		c0-4.1,0.8-7.7,2.3-10.8c1.5-3.1,3.7-5.6,6.5-7.3c2.8-1.8,6-2.6,9.7-2.6c2.3,0,4.5,0.4,6.6,1.1c2.1,0.7,4,1.9,5.7,3.5
		c1.7,1.6,3,3.7,4,6.2c1,2.6,1.5,5.6,1.5,9.3v2.8h-31.8v-5.8h24.2c0-2-0.4-3.9-1.3-5.5c-0.8-1.6-2-2.8-3.5-3.8
		c-1.5-0.9-3.3-1.4-5.3-1.4c-2.2,0-4.1,0.5-5.7,1.6c-1.6,1.1-2.9,2.5-3.8,4.2c-0.9,1.7-1.3,3.6-1.3,5.6v4.6c0,2.7,0.5,5,1.4,6.8
		c0.9,1.9,2.3,3.3,4,4.3c1.7,1,3.7,1.5,6,1.5c1.5,0,2.8-0.2,4-0.6c1.2-0.4,2.3-1.1,3.2-1.9c0.9-0.9,1.6-1.9,2-3.2l7.4,1.3
		c-0.6,2.2-1.6,4.1-3.2,5.7c-1.5,1.6-3.4,2.9-5.7,3.8C1017.5,568.1,1014.9,568.6,1011.9,568.6z"/>
	<path class="st14" d="M1054.8,583.6c-3.2,0-5.9-0.4-8.2-1.3c-2.3-0.8-4.2-1.9-5.6-3.3c-1.4-1.4-2.5-2.9-3.2-4.5l6.7-2.8
		c0.5,0.8,1.1,1.6,1.9,2.4c0.8,0.9,1.9,1.6,3.2,2.2c1.4,0.6,3.1,0.9,5.3,0.9c3,0,5.4-0.7,7.3-2.2c1.9-1.4,2.9-3.7,2.9-6.8v-7.9h-0.5
		c-0.5,0.9-1.1,1.8-2,2.8c-0.9,1-2.1,1.9-3.6,2.7c-1.5,0.8-3.5,1.1-6,1.1c-3.2,0-6-0.7-8.5-2.2c-2.5-1.5-4.5-3.7-6-6.6
		c-1.5-2.9-2.2-6.5-2.2-10.8c0-4.3,0.7-7.9,2.2-11c1.5-3,3.4-5.4,6-7c2.5-1.6,5.4-2.4,8.6-2.4c2.5,0,4.5,0.4,6,1.2
		c1.5,0.8,2.7,1.8,3.6,2.9c0.9,1.1,1.5,2.1,2,2.9h0.6v-6.5h7.6v40.9c0,3.4-0.8,6.3-2.4,8.5c-1.6,2.2-3.8,3.8-6.5,4.9
		C1061.3,583.1,1058.2,583.6,1054.8,583.6z M1054.7,560.7c2.2,0,4.1-0.5,5.7-1.6c1.6-1,2.7-2.6,3.5-4.5c0.8-2,1.2-4.3,1.2-7.1
		c0-2.7-0.4-5.1-1.2-7.1c-0.8-2-2-3.7-3.5-4.8c-1.6-1.2-3.5-1.7-5.7-1.7c-2.3,0-4.3,0.6-5.9,1.8c-1.6,1.2-2.7,2.8-3.5,4.9
		s-1.2,4.4-1.2,6.9c0,2.6,0.4,4.9,1.2,6.9c0.8,2,2,3.5,3.6,4.6C1050.5,560.1,1052.4,560.7,1054.7,560.7z"/>
	<path class="st14" d="M1087.5,521.5c-1.4,0-2.5-0.5-3.5-1.4c-1-0.9-1.5-2-1.5-3.3c0-1.3,0.5-2.4,1.5-3.3c1-0.9,2.1-1.4,3.5-1.4
		c1.4,0,2.5,0.5,3.5,1.4c1,0.9,1.4,2,1.4,3.3c0,1.3-0.5,2.4-1.4,3.3C1090,521.1,1088.8,521.5,1087.5,521.5z M1083.5,567.8v-40.1h7.8
		v40.1H1083.5z"/>
	<path class="st14" d="M1118.9,568.6c-3.9,0-7.2-0.9-10-2.6c-2.8-1.8-4.9-4.2-6.4-7.3s-2.2-6.7-2.2-10.7c0-4.1,0.8-7.7,2.3-10.8
		c1.5-3.1,3.7-5.6,6.5-7.3c2.8-1.8,6.1-2.6,9.8-2.6c3,0,5.8,0.6,8.1,1.7c2.4,1.1,4.3,2.7,5.8,4.7c1.5,2,2.3,4.4,2.6,7.1h-7.6
		c-0.4-1.9-1.4-3.5-2.9-4.9c-1.5-1.4-3.5-2-6-2c-2.2,0-4.1,0.6-5.7,1.7c-1.6,1.1-2.9,2.8-3.8,4.9c-0.9,2.1-1.4,4.6-1.4,7.4
		c0,2.9,0.4,5.4,1.3,7.6c0.9,2.1,2.1,3.8,3.8,4.9s3.5,1.7,5.7,1.7c1.5,0,2.8-0.3,4-0.8c1.2-0.5,2.2-1.3,3-2.4c0.8-1,1.4-2.3,1.7-3.7
		h7.6c-0.3,2.6-1.1,4.9-2.5,6.9c-1.4,2-3.3,3.6-5.6,4.8C1124.8,568,1122.1,568.6,1118.9,568.6z"/>
	<path class="st14" d="M1164.3,567.8v-53.4h19.6c3.8,0,6.9,0.6,9.4,1.9c2.5,1.2,4.3,2.9,5.6,5c1.2,2.1,1.9,4.5,1.9,7.1
		c0,2.2-0.4,4.1-1.2,5.6c-0.8,1.5-1.9,2.7-3.3,3.7s-2.9,1.6-4.5,2v0.5c1.8,0.1,3.5,0.7,5.2,1.7c1.7,1,3.1,2.5,4.2,4.5
		c1.1,1.9,1.7,4.3,1.7,7c0,2.7-0.6,5.2-1.9,7.3c-1.3,2.2-3.2,3.9-5.9,5.1s-6.1,1.9-10.2,1.9H1164.3z M1172.3,537.5h10.8
		c1.8,0,3.4-0.4,4.9-1c1.5-0.7,2.6-1.7,3.5-2.9c0.9-1.3,1.3-2.8,1.3-4.5c0-2.2-0.8-4.1-2.3-5.6c-1.6-1.5-3.9-2.2-7.1-2.2h-11V537.5z
		 M1172.3,560.8h11.6c3.9,0,6.6-0.7,8.3-2.2c1.7-1.5,2.5-3.4,2.5-5.6c0-1.7-0.4-3.2-1.3-4.6c-0.8-1.4-2.1-2.5-3.6-3.4
		s-3.4-1.3-5.6-1.3h-11.9V560.8z"/>
	<path class="st14" d="M1212.5,567.8v-53.4h19c4.2,0,7.6,0.8,10.3,2.3c2.7,1.5,4.8,3.6,6.1,6.2c1.4,2.6,2,5.6,2,8.8
		c0,3.3-0.7,6.2-2,8.9c-1.4,2.6-3.4,4.7-6.2,6.2c-2.7,1.5-6.2,2.3-10.3,2.3h-13.1v-6.8h12.4c2.6,0,4.8-0.5,6.4-1.4
		c1.6-0.9,2.8-2.2,3.6-3.7c0.8-1.6,1.1-3.4,1.1-5.4c0-2-0.4-3.8-1.1-5.4c-0.8-1.6-2-2.8-3.6-3.7c-1.6-0.9-3.8-1.3-6.5-1.3h-10.1
		v46.5H1212.5z"/>
	<path class="st14" d="M1306,541.1c0,5.7-1,10.6-3.1,14.7c-2.1,4.1-4.9,7.2-8.6,9.4c-3.6,2.2-7.7,3.3-12.3,3.3
		c-4.6,0-8.7-1.1-12.4-3.3c-3.6-2.2-6.5-5.4-8.6-9.5c-2.1-4.1-3.1-9-3.1-14.7c0-5.7,1-10.6,3.1-14.7c2.1-4.1,4.9-7.2,8.6-9.4
		c3.6-2.2,7.8-3.3,12.4-3.3c4.6,0,8.7,1.1,12.3,3.3c3.6,2.2,6.5,5.3,8.6,9.4C1305,530.5,1306,535.4,1306,541.1z M1298.1,541.1
		c0-4.3-0.7-8-2.1-11c-1.4-3-3.3-5.2-5.7-6.8c-2.4-1.5-5.2-2.3-8.2-2.3c-3.1,0-5.8,0.8-8.2,2.3c-2.4,1.5-4.3,3.8-5.7,6.8
		c-1.4,3-2.1,6.6-2.1,11c0,4.3,0.7,8,2.1,11c1.4,3,3.3,5.2,5.7,6.8c2.4,1.5,5.2,2.3,8.2,2.3c3.1,0,5.8-0.8,8.2-2.3
		c2.4-1.5,4.3-3.8,5.7-6.8C1297.4,549.1,1298.1,545.4,1298.1,541.1z"/>
</g>
</svg>
