<?xml version="1.0" encoding="utf-8"?>
<!-- Generator: Adobe Illustrator 25.4.1, SVG Export Plug-In . SVG Version: 6.00 Build 0)  -->
<svg version="1.1" id="Layer_1" xmlns="http://www.w3.org/2000/svg" xmlns:xlink="http://www.w3.org/1999/xlink" x="0px" y="0px"
	 viewBox="0 0 680.3 693.9" style="enable-background:new 0 0 680.3 693.9;" xml:space="preserve">
<style type="text/css">
	.st0{fill:#20294F;}
	.st1{fill:#E0E4E5;}
	.st2{fill:#FFFFFF;}
	.st3{fill:#333333;}
	.st4{fill:#F1EEE8;}
	.st5{fill:#202124;}
	.st6{fill:#F1EEE8;stroke:#F1EEE8;stroke-miterlimit:10;}
	.st7{opacity:0.66;}
	.st8{fill:none;stroke:#E0E4E5;stroke-width:0.5;stroke-miterlimit:10;}
	.st9{fill:#FFFFFF;stroke:#E0E4E5;stroke-width:0.5;stroke-miterlimit:10;}
	.st10{fill:#B7AB95;}
	.st11{fill:none;stroke:#1D1D1B;stroke-width:0.1;stroke-miterlimit:10;}
	.st12{fill:none;stroke:#1D1D1B;stroke-width:9.757406e-02;stroke-miterlimit:10;}
	.st13{fill:#4B4B4B;}
	.st14{fill:#A8A8A8;}
	.st15{fill:#886D34;}
</style>
<g>
	<path class="st1" d="M571.8,115.2H108.4v463.4h463.4V115.2z"/>
	<path class="st0" d="M253.5,287.7l-8.2,16.8h-75.4v27.1h75.2l-7.7,16.8h-67.5v30.3h83.6l-5.3,16.8h-96.9V287.7H253.5z"/>
	<path class="st0" d="M528.6,341.9c0,32-26.2,55.5-62,55.5c-35.8,0-62-23.6-62-55.5c0-32,26.2-55.5,62-55.5
		C502.5,286.4,528.6,309.5,528.6,341.9z M424,341.9c0,23,17.3,38.6,42.8,38.6c25.5,0,42.8-15.6,42.8-38.6s-17.3-38.6-42.8-38.6
		C441.3,303.3,424,318.6,424,341.9z"/>
	<path class="st0" d="M162,504.6c5.3,7.6,12.4,13.7,20.7,17.8c8.3,4.1,17.4,6,26.5,5.6c19,0,32.7-6.5,32.7-16.1
		c0-11.4-8.8-12.3-39.7-15.9c-26.9-3.2-46-7.6-46-28.6c0-19.5,18.8-33.7,48.3-33.7c23.4,0,44.6,9,53.6,23.1l-13.5,11.6
		c-7.7-11.6-22.4-18-40.5-18c-20.9,0-29.7,7.3-29.7,15.2c0,7.7,6.8,10.7,34.4,13.8c32.1,3.8,52,7.3,52,30.3c0,23-22.8,35-51.5,35
		c-26,0-50.2-10.9-60-27.5L162,504.6z"/>
	<path class="st0" d="M340.6,452v82.5l-18.8,8.5v-91h-47.7v-16.8h114.3V452H340.6z"/>
	<path class="st0" d="M431.2,534.6l-18.8,8.6V435.3h65.8c23.1,0,39,11.2,39,33c0.2,7.4-2.1,14.6-6.6,20.4c-4.6,5.7-10.9,9.7-18,10.9
		l26.9,43.4h-21.4l-25.8-41.7H431L431.2,534.6z M477.1,484.8c13.5,0,21.4-6,21.4-16.6s-7.8-16.6-21.4-16.6h-45.9v33h45.9V484.8z"/>
	<path class="st0" d="M325.4,396.1l0.4,0.6h12.8l57.5-109.2h-13.8l-50.2,75.9l-50.1-75.9h-13.9L325.4,396.1z"/>
</g>
</svg>
