<?xml version="1.0" encoding="utf-8"?>
<!-- Generator: Adobe Illustrator 25.4.1, SVG Export Plug-In . SVG Version: 6.00 Build 0)  -->
<svg version="1.1" id="Layer_1" xmlns="http://www.w3.org/2000/svg" xmlns:xlink="http://www.w3.org/1999/xlink" x="0px" y="0px"
	 viewBox="0 0 995.3 858.4" style="enable-background:new 0 0 995.3 858.4;" xml:space="preserve">
<style type="text/css">
	.st0{fill:#20294F;}
	.st1{fill:#E0E4E5;}
	.st2{fill:#FFFFFF;}
	.st3{fill:#333333;}
	.st4{fill:#F1EEE8;}
	.st5{fill:#202124;}
	.st6{fill:#F1EEE8;stroke:#F1EEE8;stroke-miterlimit:10;}
	.st7{opacity:0.66;}
	.st8{fill:none;stroke:#E0E4E5;stroke-width:0.5;stroke-miterlimit:10;}
	.st9{fill:#FFFFFF;stroke:#E0E4E5;stroke-width:0.5;stroke-miterlimit:10;}
	.st10{fill:#B7AB95;}
	.st11{fill:none;stroke:#1D1D1B;stroke-width:0.1;stroke-miterlimit:10;}
	.st12{fill:none;stroke:#1D1D1B;stroke-width:9.757406e-02;stroke-miterlimit:10;}
	.st13{fill:#4B4B4B;}
	.st14{fill:#A8A8A8;}
	.st15{fill:#886D34;}
</style>
<g>
	<path class="st2" d="M764.6,43.7H230.7v533.9h533.9V43.7z"/>
	<path d="M397.8,242.3l-9.4,19.3h-86.9v31.2h86.7l-8.9,19.3h-77.7v35h96.3l-6.1,19.3H280.1V242.3H397.8z"/>
	<path d="M714.7,304.8c0,36.9-30.2,63.9-71.4,63.9c-41.2,0-71.4-27.1-71.4-63.9c0-36.9,30.2-63.9,71.4-63.9
		C684.7,240.9,714.7,267.5,714.7,304.8z M594.2,304.8c0,26.5,19.9,44.5,49.3,44.5c29.3,0,49.3-18,49.3-44.5
		c0-26.5-19.9-44.5-49.3-44.5C614.2,260.3,594.2,277.9,594.2,304.8z"/>
	<path d="M292.5,492.3c6.1,8.8,14.3,15.8,23.8,20.5c9.5,4.8,20,7,30.6,6.5c21.9,0,37.6-7.5,37.6-18.6c0-13.1-10.1-14.2-45.7-18.3
		c-31-3.7-53-8.8-53-33c0-22.5,21.6-38.9,55.6-38.9c27,0,51.3,10.4,61.7,26.6l-15.5,13.3c-8.9-13.3-25.8-20.8-46.7-20.8
		c-24.1,0-34.2,8.4-34.2,17.5c0,8.9,7.8,12.3,39.6,15.9c37,4.4,59.9,8.4,59.9,35c0,26.5-26.3,40.3-59.3,40.3
		c-29.9,0-57.8-12.6-69.2-31.7L292.5,492.3z"/>
	<path d="M498.2,431.6v95.1l-21.6,9.8V431.6h-55v-19.3h131.6v19.3H498.2z"/>
	<path d="M602.5,526.7l-21.6,9.9V412.3h75.8c26.6,0,45,13,45,38c0.2,8.6-2.4,16.9-7.6,23.5c-5.3,6.6-12.6,11.1-20.8,12.6l31,50
		h-24.7l-29.7-48h-47.7L602.5,526.7z M655.5,469.4c15.5,0,24.7-7,24.7-19.1c0-12.1-9-19.1-24.7-19.1h-52.9v38h52.9V469.4z"/>
	<path d="M480.7,367.2l0.5,0.7H496l66.2-125.8h-15.9l-57.8,87.4l-57.7-87.4h-16L480.7,367.2z"/>
</g>
<g>
	<path class="st2" d="M193.5,697.9v17.9h-91.1v28.9h82v17.9h-82v32.4h91.1V813H82.3V697.9H193.5z"/>
	<path class="st2" d="M269.5,813l-59-115.1h21.9l49.1,95.9l49.1-95.9h21.8L293.2,813H269.5z"/>
	<path class="st2" d="M493.3,755.4c0,34.2-28.5,59.3-67.7,59.3c-39.1,0-67.7-25.2-67.7-59.3c0-34.2,28.5-59.3,67.7-59.3
		C464.8,696.2,493.3,721.3,493.3,755.4z M379.3,755.4c0,24.5,18.8,41.2,46.5,41.2c27.8,0,46.5-16.9,46.5-41.2
		c0-24.3-18.7-41.2-46.5-41.2C398,714.3,379.3,730.8,379.3,755.4z"/>
	<path class="st2" d="M523.1,772c5.8,8.1,13.5,14.6,22.4,19c8.9,4.4,18.8,6.4,28.8,6c20.6,0,35.6-6.9,35.6-16.9
		c0-12.2-9.6-13.1-43.3-16.9c-29.3-3.4-50.2-8.2-50.2-30.6c0-20.8,20.5-36,52.6-36c25.5,0,48.6,9.6,58.3,24.7l-14.7,12
		c-8.4-12.4-24.4-19.2-44.4-19.2c-22.6,0-32.4,7.8-32.4,16.2c0,8.3,7.4,11.3,37.6,14.9c34.9,4,56.4,7.8,56.4,32.4
		c0,24.5-24.9,37.3-56.1,37.3c-28.2,0-54.7-11.7-65.4-29.2L523.1,772z"/>
	<path class="st2" d="M717.6,715.8V813h-20.4v-97.2h-52v-17.9h124.4v17.9H717.6z"/>
	<path class="st2" d="M816.3,813h-20.5V697.9h71.7c25.2,0,42.5,12,42.5,35.3c0.3,7.9-2.3,15.6-7.2,21.8
		c-4.9,6.2-11.9,10.3-19.7,11.7l29.8,46.4h-23.5l-28.2-44.6h-45.1L816.3,813z M866.4,751c14.8,0,23.4-6.4,23.4-17.7
		c0-11.2-8.6-17.6-23.4-17.6h-50V751H866.4z"/>
</g>
</svg>
