<?xml version="1.0" encoding="utf-8"?>
<!-- Generator: Adobe Illustrator 25.4.1, SVG Export Plug-In . SVG Version: 6.00 Build 0)  -->
<svg version="1.1" id="Layer_1" xmlns="http://www.w3.org/2000/svg" xmlns:xlink="http://www.w3.org/1999/xlink" x="0px" y="0px"
	 viewBox="0 0 1527.7 1013.9" style="enable-background:new 0 0 1527.7 1013.9;" xml:space="preserve">
<style type="text/css">
	.st0{fill:#20294F;}
	.st1{fill:#E0E4E5;}
	.st2{fill:#FFFFFF;}
	.st3{fill:#333333;}
	.st4{fill:#F1EEE8;}
	.st5{fill:#202124;}
	.st6{fill:#F1EEE8;stroke:#F1EEE8;stroke-miterlimit:10;}
	.st7{opacity:0.66;}
	.st8{fill:none;stroke:#E0E4E5;stroke-width:0.5;stroke-miterlimit:10;}
	.st9{fill:#FFFFFF;stroke:#E0E4E5;stroke-width:0.5;stroke-miterlimit:10;}
	.st10{fill:#B7AB95;}
	.st11{fill:none;stroke:#1D1D1B;stroke-width:0.1;stroke-miterlimit:10;}
	.st12{fill:none;stroke:#1D1D1B;stroke-width:9.757406e-02;stroke-miterlimit:10;}
	.st13{fill:#4B4B4B;}
	.st14{fill:#A8A8A8;}
	.st15{fill:#886D34;}
</style>
<g>
	<path class="st2" d="M1030.8,62.1H496.9v533.9h533.9V62.1z"/>
	<path d="M664,260.8l-9.4,19.3h-86.9v31.2h86.7l-8.9,19.3h-77.7v35H664l-6.1,19.3H546.3V260.8H664z"/>
	<path d="M980.9,323.2c0,36.9-30.2,63.9-71.4,63.9c-41.2,0-71.4-27.1-71.4-63.9c0-36.9,30.2-63.9,71.4-63.9
		C950.9,259.3,980.9,285.9,980.9,323.2z M860.4,323.2c0,26.5,19.9,44.5,49.3,44.5c29.3,0,49.3-18,49.3-44.5
		c0-26.5-19.9-44.5-49.3-44.5C880.4,278.7,860.4,296.3,860.4,323.2z"/>
	<path d="M558.7,510.7c6.1,8.8,14.3,15.8,23.8,20.5c9.5,4.8,20,7,30.6,6.5c21.9,0,37.6-7.5,37.6-18.6c0-13.1-10.1-14.2-45.7-18.3
		c-31-3.7-53-8.8-53-33c0-22.5,21.6-38.9,55.6-38.9c27,0,51.3,10.4,61.7,26.6l-15.5,13.3c-8.9-13.3-25.8-20.8-46.7-20.8
		c-24.1,0-34.2,8.4-34.2,17.5c0,8.9,7.8,12.3,39.6,15.9c37,4.4,59.9,8.4,59.9,35c0,26.5-26.3,40.3-59.3,40.3
		c-29.9,0-57.8-12.6-69.2-31.7L558.7,510.7z"/>
	<path d="M764.4,450.1v95.1l-21.6,9.8V450.1h-55v-19.3h131.6v19.3H764.4z"/>
	<path d="M868.7,545.2l-21.6,9.9V430.8h75.8c26.6,0,45,13,45,38c0.2,8.6-2.4,16.9-7.6,23.5c-5.3,6.6-12.6,11.1-20.8,12.6l31,50
		h-24.7l-29.7-48h-47.7L868.7,545.2z M921.7,487.8c15.5,0,24.7-7,24.7-19.1c0-12.1-9-19.1-24.7-19.1h-52.9v38h52.9V487.8z"/>
	<path d="M746.9,385.7l0.5,0.7h14.8l66.2-125.8h-15.9L754.7,348L697,260.6h-16L746.9,385.7z"/>
</g>
<g>
	<path class="st2" d="M459.7,716.3v17.9h-91.1v28.9h82v17.9h-82v32.4h91.1v17.9H348.5V716.3H459.7z"/>
	<path class="st2" d="M535.7,831.5l-59-115.1h21.9l49.1,95.9l49.1-95.9h21.8l-59.2,115.1H535.7z"/>
	<path class="st2" d="M759.5,773.9c0,34.2-28.5,59.3-67.7,59.3c-39.2,0-67.7-25.2-67.7-59.3s28.5-59.3,67.7-59.3
		C731,714.6,759.5,739.7,759.5,773.9z M645.4,773.9c0,24.5,18.8,41.2,46.5,41.2c27.8,0,46.5-16.9,46.5-41.2s-18.7-41.2-46.5-41.2
		C664.2,732.7,645.4,749.2,645.4,773.9z"/>
	<path class="st2" d="M789.3,790.4c5.8,8.1,13.5,14.6,22.4,19c8.9,4.4,18.8,6.4,28.8,6c20.6,0,35.6-6.9,35.6-16.9
		c0-12.2-9.6-13.1-43.3-16.9c-29.3-3.4-50.2-8.2-50.2-30.6c0-20.8,20.5-36,52.6-36c25.5,0,48.6,9.6,58.3,24.7l-14.7,12
		c-8.4-12.4-24.4-19.2-44.4-19.2c-22.6,0-32.4,7.8-32.4,16.2c0,8.3,7.4,11.3,37.6,14.9c34.9,4,56.4,7.8,56.4,32.4
		c0,24.5-24.9,37.3-56.1,37.3c-28.2,0-54.7-11.7-65.4-29.2L789.3,790.4z"/>
	<path class="st2" d="M983.8,734.3v97.2h-20.4v-97.2h-52v-17.9h124.4v17.9H983.8z"/>
	<path class="st2" d="M1082.5,831.5H1062V716.3h71.7c25.2,0,42.5,12,42.5,35.3c0.3,7.9-2.3,15.6-7.2,21.8
		c-4.9,6.2-11.9,10.3-19.7,11.7l29.8,46.4h-23.5l-28.2-44.6h-45.1L1082.5,831.5z M1132.6,769.4c14.8,0,23.4-6.4,23.4-17.7
		c0-11.2-8.6-17.6-23.4-17.6h-50v35.3H1132.6z"/>
</g>
<g>
	<path class="st2" d="M81.4,938.7v-44.4h27.5v5.8H88.1v13.5h18.8v5.7H88.1v19.3H81.4z"/>
	<path class="st2" d="M116.2,938.7v-33.3h6.3v5.3h0.3c0.6-1.8,1.7-3.2,3.2-4.2c1.5-1,3.3-1.5,5.2-1.5c0.4,0,0.9,0,1.4,0
		c0.6,0,1,0.1,1.3,0.1v6.2c-0.3-0.1-0.7-0.2-1.4-0.3c-0.7-0.1-1.3-0.1-2-0.1c-1.5,0-2.9,0.3-4.1,1c-1.2,0.6-2.1,1.5-2.8,2.7
		c-0.7,1.1-1,2.4-1,3.9v20.3H116.2z"/>
	<path class="st2" d="M152.5,939.4c-3.1,0-5.8-0.7-8.2-2.1c-2.3-1.4-4.1-3.4-5.4-6c-1.3-2.6-1.9-5.6-1.9-9c0-3.5,0.6-6.5,1.9-9.1
		c1.3-2.6,3.1-4.6,5.4-6c2.3-1.4,5.1-2.1,8.2-2.1c3.1,0,5.8,0.7,8.2,2.1c2.3,1.4,4.1,3.4,5.4,6c1.3,2.6,1.9,5.6,1.9,9.1
		c0,3.4-0.6,6.4-1.9,9c-1.3,2.6-3.1,4.6-5.4,6C158.3,938.6,155.6,939.4,152.5,939.4z M152.5,933.9c2,0,3.7-0.5,5-1.6
		c1.3-1.1,2.3-2.5,3-4.3c0.6-1.8,1-3.7,1-5.9c0-2.1-0.3-4.1-1-5.9c-0.6-1.8-1.6-3.2-3-4.3c-1.3-1.1-3-1.6-5-1.6
		c-2,0-3.7,0.5-5.1,1.6c-1.3,1.1-2.3,2.5-3,4.3c-0.6,1.8-1,3.7-1,5.9c0,2.1,0.3,4.1,1,5.9c0.6,1.8,1.6,3.2,3,4.3
		C148.8,933.4,150.4,933.9,152.5,933.9z"/>
	<path class="st2" d="M175.2,938.7v-33.3h6.2v5.4h0.4c0.7-1.8,1.8-3.3,3.4-4.3c1.6-1,3.5-1.5,5.7-1.5c2.2,0,4.1,0.5,5.6,1.6
		c1.5,1,2.6,2.5,3.3,4.3h0.3c0.8-1.8,2.1-3.2,3.8-4.3c1.7-1.1,3.8-1.6,6.2-1.6c3,0,5.5,0.9,7.4,2.8c1.9,1.9,2.9,4.7,2.9,8.6v22.3
		h-6.5V917c0-2.3-0.6-3.9-1.8-4.9c-1.2-1-2.7-1.5-4.4-1.5c-2.1,0-3.7,0.6-4.9,1.9c-1.2,1.3-1.8,2.9-1.8,5v21.2h-6.5v-22.1
		c0-1.8-0.6-3.3-1.7-4.4c-1.1-1.1-2.6-1.6-4.4-1.6c-1.2,0-2.4,0.3-3.4,1c-1,0.6-1.9,1.5-2.5,2.7c-0.6,1.1-0.9,2.5-0.9,4v20.5H175.2z
		"/>
	<path class="st2" d="M282.6,908.7h-6.8c-0.3-1.4-0.7-2.7-1.5-3.8c-0.7-1.1-1.6-2-2.6-2.8c-1-0.8-2.2-1.3-3.4-1.7
		c-1.3-0.4-2.6-0.6-4-0.6c-2.6,0-4.8,0.6-6.9,1.9c-2,1.3-3.6,3.2-4.8,5.7c-1.2,2.5-1.7,5.5-1.7,9.1c0,3.6,0.6,6.7,1.7,9.1
		c1.2,2.5,2.8,4.4,4.8,5.6c2,1.3,4.3,1.9,6.8,1.9c1.4,0,2.7-0.2,4-0.6c1.3-0.4,2.4-0.9,3.4-1.7c1-0.7,1.9-1.7,2.6-2.8
		c0.7-1.1,1.2-2.3,1.5-3.8l6.8,0c-0.4,2.2-1.1,4.2-2.1,6c-1,1.8-2.4,3.4-4,4.7c-1.6,1.3-3.5,2.3-5.5,3.1c-2.1,0.7-4.3,1.1-6.8,1.1
		c-3.8,0-7.3-0.9-10.3-2.7c-3-1.8-5.4-4.4-7.1-7.9c-1.7-3.4-2.6-7.5-2.6-12.2c0-4.7,0.9-8.8,2.6-12.2c1.7-3.4,4.1-6,7.1-7.8
		c3-1.8,6.4-2.7,10.2-2.7c2.4,0,4.5,0.3,6.6,1c2,0.7,3.9,1.7,5.5,2.9c1.6,1.3,3,2.9,4.1,4.7C281.5,904.2,282.2,906.4,282.6,908.7z"
		/>
	<path class="st2" d="M304.1,939.4c-3.1,0-5.8-0.7-8.2-2.1c-2.3-1.4-4.1-3.4-5.4-6c-1.3-2.6-1.9-5.6-1.9-9c0-3.5,0.6-6.5,1.9-9.1
		c1.3-2.6,3.1-4.6,5.4-6c2.3-1.4,5.1-2.1,8.2-2.1c3.1,0,5.8,0.7,8.2,2.1c2.3,1.4,4.1,3.4,5.4,6c1.3,2.6,1.9,5.6,1.9,9.1
		c0,3.4-0.6,6.4-1.9,9c-1.3,2.6-3.1,4.6-5.4,6C310,938.6,307.3,939.4,304.1,939.4z M304.2,933.9c2,0,3.7-0.5,5-1.6
		c1.3-1.1,2.3-2.5,3-4.3c0.6-1.8,1-3.7,1-5.9c0-2.1-0.3-4.1-1-5.9c-0.6-1.8-1.6-3.2-3-4.3c-1.3-1.1-3-1.6-5-1.6
		c-2,0-3.7,0.5-5.1,1.6c-1.3,1.1-2.3,2.5-3,4.3c-0.6,1.8-1,3.7-1,5.9c0,2.1,0.3,4.1,1,5.9c0.6,1.8,1.6,3.2,3,4.3
		C300.4,933.4,302.1,933.9,304.2,933.9z"/>
	<path class="st2" d="M326.9,938.7v-33.3h6.2v5.4h0.4c0.7-1.8,1.8-3.3,3.4-4.3c1.6-1,3.5-1.5,5.7-1.5c2.2,0,4.1,0.5,5.6,1.6
		c1.5,1,2.6,2.5,3.3,4.3h0.3c0.8-1.8,2.1-3.2,3.8-4.3c1.7-1.1,3.8-1.6,6.2-1.6c3,0,5.5,0.9,7.4,2.8c1.9,1.9,2.9,4.7,2.9,8.6v22.3
		h-6.5V917c0-2.3-0.6-3.9-1.8-4.9c-1.2-1-2.7-1.5-4.4-1.5c-2.1,0-3.7,0.6-4.9,1.9c-1.2,1.3-1.8,2.9-1.8,5v21.2h-6.5v-22.1
		c0-1.8-0.6-3.3-1.7-4.4c-1.1-1.1-2.6-1.6-4.4-1.6c-1.2,0-2.4,0.3-3.4,1c-1,0.6-1.9,1.5-2.5,2.7s-0.9,2.5-0.9,4v20.5H326.9z"/>
	<path class="st2" d="M380.8,938.7v-33.3h6.2v5.4h0.4c0.7-1.8,1.8-3.3,3.4-4.3c1.6-1,3.5-1.5,5.7-1.5c2.2,0,4.1,0.5,5.6,1.6
		c1.5,1,2.6,2.5,3.3,4.3h0.3c0.8-1.8,2.1-3.2,3.8-4.3c1.7-1.1,3.8-1.6,6.2-1.6c3,0,5.5,0.9,7.4,2.8c1.9,1.9,2.9,4.7,2.9,8.6v22.3
		h-6.5V917c0-2.3-0.6-3.9-1.8-4.9c-1.2-1-2.7-1.5-4.4-1.5c-2.1,0-3.7,0.6-4.9,1.9c-1.2,1.3-1.8,2.9-1.8,5v21.2h-6.5v-22.1
		c0-1.8-0.6-3.3-1.7-4.4c-1.1-1.1-2.6-1.6-4.4-1.6c-1.2,0-2.4,0.3-3.4,1c-1,0.6-1.9,1.5-2.5,2.7c-0.6,1.1-0.9,2.5-0.9,4v20.5H380.8z
		"/>
	<path class="st2" d="M448.7,939.4c-3.1,0-5.8-0.7-8.2-2.1c-2.3-1.4-4.1-3.4-5.4-6c-1.3-2.6-1.9-5.6-1.9-9c0-3.5,0.6-6.5,1.9-9.1
		c1.3-2.6,3.1-4.6,5.4-6c2.3-1.4,5.1-2.1,8.2-2.1c3.1,0,5.8,0.7,8.2,2.1c2.3,1.4,4.1,3.4,5.4,6c1.3,2.6,1.9,5.6,1.9,9.1
		c0,3.4-0.6,6.4-1.9,9c-1.3,2.6-3.1,4.6-5.4,6C454.5,938.6,451.8,939.4,448.7,939.4z M448.7,933.9c2,0,3.7-0.5,5-1.6
		c1.3-1.1,2.3-2.5,3-4.3c0.6-1.8,1-3.7,1-5.9c0-2.1-0.3-4.1-1-5.9c-0.6-1.8-1.6-3.2-3-4.3c-1.3-1.1-3-1.6-5-1.6
		c-2,0-3.7,0.5-5.1,1.6c-1.3,1.1-2.3,2.5-3,4.3c-0.6,1.8-1,3.7-1,5.9c0,2.1,0.3,4.1,1,5.9c0.6,1.8,1.6,3.2,3,4.3
		C445,933.4,446.7,933.9,448.7,933.9z"/>
	<path class="st2" d="M483.9,939.3c-2.7,0-5.1-0.7-7.2-2.1s-3.7-3.3-4.9-5.9c-1.2-2.6-1.8-5.6-1.8-9.2c0-3.6,0.6-6.7,1.8-9.2
		c1.2-2.6,2.9-4.5,5-5.9s4.5-2,7.2-2c2.1,0,3.7,0.3,5,1c1.3,0.7,2.3,1.5,2.9,2.4c0.7,0.9,1.2,1.7,1.6,2.4h0.4v-16.5h6.5v44.4H494
		v-5.2h-0.5c-0.4,0.7-0.9,1.5-1.7,2.4c-0.7,0.9-1.7,1.7-3,2.4C487.5,939,485.9,939.3,483.9,939.3z M485.3,933.8
		c1.9,0,3.4-0.5,4.7-1.5c1.3-1,2.3-2.4,2.9-4.1c0.7-1.8,1-3.8,1-6.2c0-2.3-0.3-4.3-1-6.1c-0.7-1.7-1.6-3.1-2.9-4
		c-1.3-1-2.9-1.5-4.8-1.5c-1.9,0-3.6,0.5-4.9,1.5c-1.3,1-2.3,2.4-2.9,4.1c-0.7,1.7-1,3.7-1,5.9c0,2.2,0.3,4.2,1,6
		c0.7,1.8,1.6,3.2,3,4.2C481.8,933.3,483.4,933.8,485.3,933.8z"/>
	<path class="st2" d="M512.8,900.3c-1.1,0-2.1-0.4-2.9-1.1c-0.8-0.8-1.2-1.7-1.2-2.7c0-1.1,0.4-2,1.2-2.7c0.8-0.8,1.8-1.1,2.9-1.1
		c1.1,0,2.1,0.4,2.9,1.1c0.8,0.8,1.2,1.7,1.2,2.7c0,1.1-0.4,2-1.2,2.7C514.9,899.9,514,900.3,512.8,900.3z M509.6,938.7v-33.3h6.5
		v33.3H509.6z"/>
	<path class="st2" d="M540.3,905.4v5.2h-18.2v-5.2H540.3z M527,897.4h6.5v31.5c0,1.3,0.2,2.2,0.6,2.8c0.4,0.6,0.9,1.1,1.5,1.3
		c0.6,0.2,1.3,0.3,2,0.3c0.5,0,1,0,1.4-0.1c0.4-0.1,0.7-0.1,0.9-0.2l1.2,5.3c-0.4,0.1-0.9,0.3-1.6,0.4c-0.7,0.1-1.6,0.2-2.6,0.3
		c-1.7,0-3.3-0.3-4.8-0.9c-1.5-0.6-2.7-1.6-3.6-2.9c-0.9-1.3-1.4-3-1.4-5V897.4z"/>
	<path class="st2" d="M551.5,951.2c-1,0-1.9-0.1-2.6-0.2c-0.8-0.1-1.4-0.3-1.8-0.5l1.6-5.3c1.2,0.3,2.2,0.5,3.2,0.4
		c0.9,0,1.7-0.4,2.5-1c0.7-0.7,1.3-1.7,1.9-3.2l0.8-2.2l-12.2-33.7h6.9l8.4,25.8h0.3l8.4-25.8h6.9l-13.7,37.7
		c-0.6,1.7-1.4,3.2-2.4,4.4c-1,1.2-2.1,2.1-3.5,2.7C554.9,950.9,553.3,951.2,551.5,951.2z"/>
	<path class="st2" d="M637.2,916.5c0,4.7-0.9,8.8-2.6,12.2c-1.7,3.4-4.1,6-7.1,7.8c-3,1.8-6.4,2.7-10.3,2.7c-3.8,0-7.3-0.9-10.3-2.7
		c-3-1.8-5.4-4.4-7.1-7.9c-1.7-3.4-2.6-7.5-2.6-12.2c0-4.7,0.9-8.8,2.6-12.2c1.7-3.4,4.1-6,7.1-7.8c3-1.8,6.4-2.7,10.3-2.7
		c3.8,0,7.2,0.9,10.3,2.7c3,1.8,5.4,4.4,7.1,7.8C636.4,907.7,637.2,911.8,637.2,916.5z M630.6,916.5c0-3.6-0.6-6.7-1.7-9.1
		c-1.2-2.5-2.8-4.4-4.8-5.6c-2-1.3-4.3-1.9-6.8-1.9c-2.6,0-4.8,0.6-6.8,1.9c-2,1.3-3.6,3.2-4.8,5.6c-1.2,2.5-1.7,5.5-1.7,9.1
		c0,3.6,0.6,6.7,1.7,9.1c1.2,2.5,2.7,4.4,4.8,5.6c2,1.3,4.3,1.9,6.8,1.9c2.5,0,4.8-0.6,6.8-1.9c2-1.3,3.6-3.2,4.8-5.6
		C630,923.2,630.6,920.1,630.6,916.5z"/>
	<path class="st2" d="M666.1,924.9v-19.5h6.5v33.3h-6.4v-5.8h-0.3c-0.8,1.8-2,3.3-3.7,4.4c-1.7,1.2-3.8,1.8-6.3,1.8
		c-2.1,0-4-0.5-5.7-1.4c-1.6-0.9-2.9-2.4-3.9-4.2c-0.9-1.9-1.4-4.2-1.4-6.9v-21.2h6.5v20.4c0,2.3,0.6,4.1,1.9,5.4
		c1.3,1.3,2.9,2,4.9,2c1.2,0,2.4-0.3,3.6-0.9c1.2-0.6,2.2-1.5,3-2.8C665.7,928.3,666.1,926.8,666.1,924.9z"/>
	<path class="st2" d="M696.8,905.4v5.2h-18.2v-5.2H696.8z M683.5,897.4h6.5v31.5c0,1.3,0.2,2.2,0.6,2.8c0.4,0.6,0.9,1.1,1.5,1.3
		c0.6,0.2,1.3,0.3,2,0.3c0.5,0,1,0,1.4-0.1c0.4-0.1,0.7-0.1,0.9-0.2l1.2,5.3c-0.4,0.1-0.9,0.3-1.6,0.4c-0.7,0.1-1.6,0.2-2.6,0.3
		c-1.7,0-3.3-0.3-4.8-0.9c-1.5-0.6-2.7-1.6-3.6-2.9c-0.9-1.3-1.4-3-1.4-5V897.4z"/>
	<path class="st2" d="M728.4,913.5l-5.9,1c-0.3-0.7-0.6-1.5-1.2-2.1c-0.5-0.7-1.2-1.2-2.1-1.7c-0.9-0.4-2-0.7-3.4-0.7
		c-1.8,0-3.4,0.4-4.6,1.2c-1.2,0.8-1.8,1.9-1.8,3.2c0,1.1,0.4,2,1.2,2.7c0.8,0.7,2.1,1.2,4,1.7l5.3,1.2c3.1,0.7,5.3,1.8,6.8,3.3
		c1.5,1.5,2.3,3.4,2.3,5.7c0,2-0.6,3.8-1.7,5.3c-1.1,1.6-2.7,2.8-4.8,3.6c-2,0.9-4.4,1.3-7.1,1.3c-3.7,0-6.8-0.8-9.1-2.4
		c-2.4-1.6-3.8-3.9-4.3-6.8l6.3-0.9c0.4,1.6,1.2,2.9,2.4,3.7c1.2,0.8,2.8,1.2,4.7,1.2c2.1,0,3.8-0.4,5.1-1.3c1.3-0.9,1.9-2,1.9-3.3
		c0-1-0.4-1.9-1.2-2.6c-0.8-0.7-2-1.2-3.5-1.6l-5.6-1.2c-3.1-0.7-5.4-1.8-6.9-3.4s-2.2-3.5-2.2-5.9c0-2,0.5-3.7,1.6-5.2
		c1.1-1.5,2.6-2.6,4.5-3.5c1.9-0.8,4.1-1.2,6.7-1.2c3.6,0,6.4,0.8,8.5,2.3S727.7,910.9,728.4,913.5z"/>
	<path class="st2" d="M750.1,939.4c-3.1,0-5.8-0.7-8.2-2.1c-2.3-1.4-4.1-3.4-5.4-6c-1.3-2.6-1.9-5.6-1.9-9c0-3.5,0.6-6.5,1.9-9.1
		c1.3-2.6,3.1-4.6,5.4-6c2.3-1.4,5.1-2.1,8.2-2.1c3.1,0,5.8,0.7,8.2,2.1c2.3,1.4,4.1,3.4,5.4,6c1.3,2.6,1.9,5.6,1.9,9.1
		c0,3.4-0.6,6.4-1.9,9c-1.3,2.6-3.1,4.6-5.4,6C756,938.6,753.2,939.4,750.1,939.4z M750.2,933.9c2,0,3.7-0.5,5-1.6
		c1.3-1.1,2.3-2.5,3-4.3c0.6-1.8,1-3.7,1-5.9c0-2.1-0.3-4.1-1-5.9c-0.6-1.8-1.6-3.2-3-4.3c-1.3-1.1-3-1.6-5-1.6
		c-2,0-3.7,0.5-5.1,1.6c-1.3,1.1-2.3,2.5-3,4.3c-0.6,1.8-1,3.7-1,5.9c0,2.1,0.3,4.1,1,5.9c0.6,1.8,1.6,3.2,3,4.3
		C746.4,933.4,748.1,933.9,750.2,933.9z"/>
	<path class="st2" d="M793.9,924.9v-19.5h6.5v33.3h-6.4v-5.8h-0.3c-0.8,1.8-2,3.3-3.7,4.4c-1.7,1.2-3.8,1.8-6.3,1.8
		c-2.1,0-4-0.5-5.7-1.4c-1.6-0.9-2.9-2.4-3.9-4.2c-0.9-1.9-1.4-4.2-1.4-6.9v-21.2h6.5v20.4c0,2.3,0.6,4.1,1.9,5.4
		c1.3,1.3,2.9,2,4.9,2c1.2,0,2.4-0.3,3.6-0.9c1.2-0.6,2.2-1.5,3-2.8C793.6,928.3,793.9,926.8,793.9,924.9z"/>
	<path class="st2" d="M809.1,938.7v-33.3h6.3v5.3h0.3c0.6-1.8,1.7-3.2,3.2-4.2c1.5-1,3.3-1.5,5.2-1.5c0.4,0,0.9,0,1.4,0
		c0.6,0,1,0.1,1.3,0.1v6.2c-0.3-0.1-0.7-0.2-1.4-0.3c-0.7-0.1-1.3-0.1-2-0.1c-1.5,0-2.9,0.3-4.1,1c-1.2,0.6-2.1,1.5-2.8,2.7
		c-0.7,1.1-1,2.4-1,3.9v20.3H809.1z"/>
	<path class="st2" d="M845.4,939.4c-3.2,0-6-0.7-8.3-2.2c-2.3-1.5-4.1-3.5-5.3-6.1c-1.2-2.6-1.9-5.5-1.9-8.9c0-3.4,0.6-6.4,1.9-9
		c1.3-2.6,3.1-4.6,5.4-6.1c2.3-1.5,5-2.2,8.2-2.2c2.5,0,4.8,0.5,6.8,1.4c2,0.9,3.6,2.2,4.8,3.9c1.2,1.7,1.9,3.6,2.2,5.9h-6.3
		c-0.3-1.6-1.1-2.9-2.4-4c-1.2-1.1-2.9-1.7-4.9-1.7c-1.8,0-3.4,0.5-4.7,1.4c-1.3,0.9-2.4,2.3-3.1,4c-0.8,1.7-1.1,3.8-1.1,6.2
		c0,2.4,0.4,4.5,1.1,6.3c0.7,1.8,1.8,3.1,3.1,4.1c1.3,1,2.9,1.5,4.8,1.5c1.2,0,2.3-0.2,3.3-0.7c1-0.5,1.9-1.1,2.5-2
		c0.7-0.9,1.2-1.9,1.4-3.1h6.3c-0.2,2.2-0.9,4.1-2.1,5.8s-2.7,3-4.7,4S848,939.4,845.4,939.4z"/>
	<path class="st2" d="M869.3,900.3c-1.1,0-2.1-0.4-2.9-1.1c-0.8-0.8-1.2-1.7-1.2-2.7c0-1.1,0.4-2,1.2-2.7c0.8-0.8,1.8-1.1,2.9-1.1
		c1.1,0,2.1,0.4,2.9,1.1c0.8,0.8,1.2,1.7,1.2,2.7c0,1.1-0.4,2-1.2,2.7C871.3,899.9,870.4,900.3,869.3,900.3z M866,938.7v-33.3h6.5
		v33.3H866z"/>
	<path class="st2" d="M887.7,918.9v19.8h-6.5v-33.3h6.2v5.4h0.4c0.8-1.8,2-3.2,3.6-4.3c1.6-1.1,3.7-1.6,6.2-1.6c2.3,0,4.3,0.5,6,1.4
		c1.7,0.9,3,2.3,4,4.2c0.9,1.9,1.4,4.2,1.4,6.9v21.2h-6.5v-20.4c0-2.4-0.6-4.3-1.9-5.7c-1.3-1.4-3-2-5.2-2c-1.5,0-2.8,0.3-4,1
		c-1.2,0.7-2.1,1.6-2.8,2.8C888,915.7,887.7,917.2,887.7,918.9z"/>
	<path class="st2" d="M931.6,951.9c-2.6,0-4.9-0.3-6.8-1c-1.9-0.7-3.5-1.6-4.6-2.8c-1.2-1.1-2.1-2.4-2.7-3.7l5.6-2.3
		c0.4,0.6,0.9,1.3,1.6,2c0.7,0.7,1.6,1.3,2.7,1.8c1.1,0.5,2.6,0.8,4.4,0.8c2.5,0,4.5-0.6,6.1-1.8c1.6-1.2,2.4-3.1,2.4-5.7v-6.5h-0.4
		c-0.4,0.7-1,1.5-1.7,2.4c-0.7,0.9-1.7,1.6-3,2.3c-1.3,0.6-2.9,1-5,1c-2.6,0-5-0.6-7.1-1.9c-2.1-1.2-3.8-3.1-5-5.5
		c-1.2-2.4-1.8-5.4-1.8-8.9c0-3.5,0.6-6.6,1.8-9.1c1.2-2.5,2.9-4.5,5-5.8c2.1-1.3,4.5-2,7.2-2c2.1,0,3.7,0.3,5,1
		c1.3,0.7,2.3,1.5,3,2.4c0.7,0.9,1.3,1.7,1.7,2.4h0.5v-5.4h6.3v34c0,2.9-0.7,5.2-2,7c-1.3,1.8-3.1,3.2-5.4,4.1
		C936.9,951.4,934.4,951.9,931.6,951.9z M931.5,932.8c1.9,0,3.4-0.4,4.7-1.3c1.3-0.9,2.3-2.1,2.9-3.8c0.7-1.6,1-3.6,1-5.9
		c0-2.2-0.3-4.2-1-5.9c-0.7-1.7-1.6-3-2.9-4c-1.3-1-2.9-1.4-4.8-1.4c-1.9,0-3.6,0.5-4.9,1.5c-1.3,1-2.3,2.4-2.9,4.1
		c-0.7,1.7-1,3.6-1,5.8c0,2.2,0.3,4.1,1,5.7c0.7,1.6,1.6,2.9,3,3.9C928,932.3,929.6,932.8,931.5,932.8z"/>
	<path class="st2" d="M987,905.4v5.2h-18.2v-5.2H987z M973.7,897.4h6.5v31.5c0,1.3,0.2,2.2,0.6,2.8c0.4,0.6,0.9,1.1,1.5,1.3
		c0.6,0.2,1.3,0.3,2,0.3c0.5,0,1,0,1.4-0.1c0.4-0.1,0.7-0.1,0.9-0.2l1.2,5.3c-0.4,0.1-0.9,0.3-1.6,0.4c-0.7,0.1-1.6,0.2-2.6,0.3
		c-1.7,0-3.3-0.3-4.8-0.9c-1.5-0.6-2.7-1.6-3.6-2.9c-0.9-1.3-1.4-3-1.4-5V897.4z"/>
	<path class="st2" d="M1007.8,939.4c-3.1,0-5.8-0.7-8.2-2.1c-2.3-1.4-4.1-3.4-5.4-6c-1.3-2.6-1.9-5.6-1.9-9c0-3.5,0.6-6.5,1.9-9.1
		c1.3-2.6,3.1-4.6,5.4-6c2.3-1.4,5.1-2.1,8.2-2.1c3.1,0,5.8,0.7,8.2,2.1c2.3,1.4,4.1,3.4,5.4,6c1.3,2.6,1.9,5.6,1.9,9.1
		c0,3.4-0.6,6.4-1.9,9c-1.3,2.6-3.1,4.6-5.4,6C1013.6,938.6,1010.9,939.4,1007.8,939.4z M1007.8,933.9c2,0,3.7-0.5,5-1.6
		c1.3-1.1,2.3-2.5,3-4.3c0.6-1.8,1-3.7,1-5.9c0-2.1-0.3-4.1-1-5.9c-0.6-1.8-1.6-3.2-3-4.3c-1.3-1.1-3-1.6-5-1.6
		c-2,0-3.7,0.5-5.1,1.6c-1.3,1.1-2.3,2.5-3,4.3c-0.6,1.8-1,3.7-1,5.9c0,2.1,0.3,4.1,1,5.9c0.6,1.8,1.6,3.2,3,4.3
		C1004.1,933.4,1005.8,933.9,1007.8,933.9z"/>
	<path class="st2" d="M1071.4,906c-0.2-2.1-1.2-3.6-2.9-4.8c-1.7-1.1-3.8-1.7-6.3-1.7c-1.8,0-3.4,0.3-4.7,0.9
		c-1.3,0.6-2.4,1.3-3.1,2.3c-0.7,1-1.1,2.1-1.1,3.4c0,1.1,0.2,2,0.7,2.7c0.5,0.8,1.2,1.4,2,1.9c0.8,0.5,1.7,0.9,2.6,1.3
		s1.8,0.6,2.7,0.8l4.3,1.1c1.4,0.3,2.9,0.8,4.4,1.4c1.5,0.6,2.9,1.4,4.1,2.3c1.3,1,2.3,2.2,3.1,3.6c0.8,1.4,1.2,3.1,1.2,5.1
		c0,2.5-0.7,4.7-1.9,6.7c-1.3,2-3.2,3.5-5.6,4.6c-2.4,1.1-5.4,1.7-8.9,1.7c-3.3,0-6.2-0.5-8.6-1.6c-2.4-1.1-4.3-2.5-5.7-4.5
		c-1.4-1.9-2.1-4.3-2.3-6.9h6.7c0.1,1.6,0.7,2.9,1.6,4c0.9,1.1,2.1,1.8,3.5,2.4c1.4,0.5,3,0.8,4.7,0.8c1.9,0,3.6-0.3,5.1-0.9
		c1.5-0.6,2.6-1.4,3.5-2.5c0.9-1.1,1.3-2.3,1.3-3.8c0-1.3-0.4-2.4-1.1-3.2c-0.7-0.8-1.7-1.5-3-2.1c-1.3-0.5-2.7-1-4.3-1.5l-5.2-1.4
		c-3.6-1-6.4-2.4-8.4-4.3c-2.1-1.9-3.1-4.4-3.1-7.5c0-2.6,0.7-4.8,2.1-6.7c1.4-1.9,3.3-3.4,5.6-4.4c2.4-1.1,5-1.6,8-1.6
		c3,0,5.7,0.5,8,1.6c2.3,1.1,4.1,2.5,5.5,4.3c1.3,1.8,2,4,2.1,6.3H1071.4z"/>
	<path class="st2" d="M1101.5,905.4v5.2h-18.2v-5.2H1101.5z M1088.2,897.4h6.5v31.5c0,1.3,0.2,2.2,0.6,2.8c0.4,0.6,0.9,1.1,1.5,1.3
		c0.6,0.2,1.3,0.3,2,0.3c0.5,0,1,0,1.4-0.1c0.4-0.1,0.7-0.1,0.9-0.2l1.2,5.3c-0.4,0.1-0.9,0.3-1.6,0.4c-0.7,0.1-1.6,0.2-2.6,0.3
		c-1.7,0-3.3-0.3-4.8-0.9c-1.5-0.6-2.7-1.6-3.6-2.9c-0.9-1.3-1.4-3-1.4-5V897.4z"/>
	<path class="st2" d="M1108.6,938.7v-33.3h6.3v5.3h0.3c0.6-1.8,1.7-3.2,3.2-4.2c1.5-1,3.3-1.5,5.2-1.5c0.4,0,0.9,0,1.4,0
		c0.6,0,1,0.1,1.3,0.1v6.2c-0.3-0.1-0.7-0.2-1.4-0.3c-0.7-0.1-1.3-0.1-2-0.1c-1.5,0-2.9,0.3-4.1,1c-1.2,0.6-2.1,1.5-2.8,2.7
		c-0.7,1.1-1,2.4-1,3.9v20.3H1108.6z"/>
	<path class="st2" d="M1141.4,939.4c-2.1,0-4-0.4-5.7-1.2c-1.7-0.8-3.1-1.9-4-3.4c-1-1.5-1.5-3.3-1.5-5.5c0-1.9,0.4-3.4,1.1-4.6
		c0.7-1.2,1.7-2.2,2.9-2.9c1.2-0.7,2.6-1.2,4.1-1.6c1.5-0.4,3.1-0.6,4.6-0.8c2-0.2,3.6-0.4,4.9-0.6c1.2-0.1,2.1-0.4,2.7-0.7
		c0.6-0.3,0.8-0.9,0.8-1.7v-0.1c0-1.9-0.5-3.4-1.6-4.4c-1.1-1-2.6-1.6-4.7-1.6c-2.2,0-3.9,0.5-5.1,1.4c-1.2,1-2.1,2-2.6,3.2
		l-6.1-1.4c0.7-2,1.8-3.7,3.2-4.9c1.4-1.2,3-2.2,4.8-2.7c1.8-0.6,3.7-0.9,5.7-0.9c1.3,0,2.7,0.2,4.2,0.5c1.5,0.3,2.9,0.9,4.2,1.7
		c1.3,0.8,2.4,2,3.2,3.5c0.8,1.5,1.3,3.5,1.3,5.9v22.1h-6.3v-4.5h-0.3c-0.4,0.8-1.1,1.7-1.9,2.5c-0.8,0.8-1.9,1.5-3.2,2
		C1144.8,939.2,1143.3,939.4,1141.4,939.4z M1142.8,934.2c1.8,0,3.3-0.4,4.6-1.1c1.3-0.7,2.3-1.6,2.9-2.8c0.7-1.1,1-2.4,1-3.7v-4.3
		c-0.2,0.2-0.7,0.4-1.3,0.6c-0.7,0.2-1.4,0.4-2.2,0.5c-0.8,0.1-1.7,0.3-2.4,0.4c-0.8,0.1-1.5,0.2-2,0.3c-1.3,0.2-2.4,0.4-3.4,0.8
		c-1,0.4-1.9,0.9-2.5,1.6c-0.6,0.7-0.9,1.6-0.9,2.8c0,1.6,0.6,2.8,1.8,3.6C1139.5,933.8,1141,934.2,1142.8,934.2z"/>
	<path class="st2" d="M1182,905.4v5.2h-18.2v-5.2H1182z M1168.7,897.4h6.5v31.5c0,1.3,0.2,2.2,0.6,2.8c0.4,0.6,0.9,1.1,1.5,1.3
		c0.6,0.2,1.3,0.3,2,0.3c0.5,0,1,0,1.4-0.1c0.4-0.1,0.7-0.1,0.9-0.2l1.2,5.3c-0.4,0.1-0.9,0.3-1.6,0.4c-0.7,0.1-1.6,0.2-2.6,0.3
		c-1.7,0-3.3-0.3-4.8-0.9c-1.5-0.6-2.7-1.6-3.6-2.9c-0.9-1.3-1.4-3-1.4-5V897.4z"/>
	<path class="st2" d="M1203.2,939.4c-3.3,0-6.1-0.7-8.5-2.1c-2.4-1.4-4.2-3.4-5.5-6c-1.3-2.6-1.9-5.6-1.9-9c0-3.4,0.6-6.4,1.9-9
		s3.1-4.6,5.4-6.1c2.3-1.5,5-2.2,8.1-2.2c1.9,0,3.7,0.3,5.5,0.9c1.8,0.6,3.3,1.6,4.7,2.9c1.4,1.3,2.5,3.1,3.3,5.2
		c0.8,2.1,1.2,4.7,1.2,7.7v2.3H1191v-4.9h20.1c0-1.7-0.3-3.2-1-4.5c-0.7-1.3-1.7-2.4-2.9-3.1c-1.2-0.8-2.7-1.1-4.4-1.1
		c-1.8,0-3.4,0.4-4.8,1.3c-1.3,0.9-2.4,2-3.1,3.5c-0.7,1.4-1.1,3-1.1,4.6v3.8c0,2.2,0.4,4.1,1.2,5.7c0.8,1.6,1.9,2.8,3.3,3.6
		c1.4,0.8,3.1,1.2,5,1.2c1.2,0,2.3-0.2,3.4-0.5c1-0.4,1.9-0.9,2.6-1.6c0.7-0.7,1.3-1.6,1.7-2.6l6.1,1.1c-0.5,1.8-1.4,3.4-2.6,4.7
		c-1.3,1.4-2.8,2.4-4.7,3.1C1207.8,939,1205.6,939.4,1203.2,939.4z"/>
	<path class="st2" d="M1238.6,951.9c-2.6,0-4.9-0.3-6.8-1c-1.9-0.7-3.5-1.6-4.6-2.8c-1.2-1.1-2.1-2.4-2.7-3.7l5.6-2.3
		c0.4,0.6,0.9,1.3,1.6,2c0.7,0.7,1.6,1.3,2.7,1.8c1.1,0.5,2.6,0.8,4.4,0.8c2.5,0,4.5-0.6,6.1-1.8c1.6-1.2,2.4-3.1,2.4-5.7v-6.5h-0.4
		c-0.4,0.7-1,1.5-1.7,2.4c-0.7,0.9-1.7,1.6-3,2.3c-1.3,0.6-2.9,1-5,1c-2.6,0-5-0.6-7.1-1.9c-2.1-1.2-3.8-3.1-5-5.5
		c-1.2-2.4-1.8-5.4-1.8-8.9c0-3.5,0.6-6.6,1.8-9.1c1.2-2.5,2.9-4.5,5-5.8c2.1-1.3,4.5-2,7.2-2c2.1,0,3.7,0.3,5,1s2.3,1.5,3,2.4
		c0.7,0.9,1.3,1.7,1.7,2.4h0.5v-5.4h6.3v34c0,2.9-0.7,5.2-2,7c-1.3,1.8-3.1,3.2-5.4,4.1C1244,951.4,1241.4,951.9,1238.6,951.9z
		 M1238.5,932.8c1.9,0,3.4-0.4,4.7-1.3c1.3-0.9,2.3-2.1,2.9-3.8c0.7-1.6,1-3.6,1-5.9c0-2.2-0.3-4.2-1-5.9c-0.7-1.7-1.6-3-2.9-4
		c-1.3-1-2.9-1.4-4.8-1.4c-1.9,0-3.6,0.5-4.9,1.5c-1.3,1-2.3,2.4-2.9,4.1s-1,3.6-1,5.8c0,2.2,0.3,4.1,1,5.7c0.7,1.6,1.6,2.9,3,3.9
		C1235,932.3,1236.6,932.8,1238.5,932.8z"/>
	<path class="st2" d="M1265.6,900.3c-1.1,0-2.1-0.4-2.9-1.1c-0.8-0.8-1.2-1.7-1.2-2.7c0-1.1,0.4-2,1.2-2.7c0.8-0.8,1.8-1.1,2.9-1.1
		c1.1,0,2.1,0.4,2.9,1.1c0.8,0.8,1.2,1.7,1.2,2.7c0,1.1-0.4,2-1.2,2.7C1267.7,899.9,1266.7,900.3,1265.6,900.3z M1262.3,938.7v-33.3
		h6.5v33.3H1262.3z"/>
	<path class="st2" d="M1291.5,939.4c-3.2,0-6-0.7-8.3-2.2c-2.3-1.5-4.1-3.5-5.3-6.1c-1.2-2.6-1.9-5.5-1.9-8.9c0-3.4,0.6-6.4,1.9-9
		c1.3-2.6,3.1-4.6,5.4-6.1c2.3-1.5,5-2.2,8.2-2.2c2.5,0,4.8,0.5,6.8,1.4c2,0.9,3.6,2.2,4.8,3.9s1.9,3.6,2.2,5.9h-6.3
		c-0.3-1.6-1.1-2.9-2.4-4c-1.2-1.1-2.9-1.7-4.9-1.7c-1.8,0-3.4,0.5-4.7,1.4c-1.3,0.9-2.4,2.3-3.1,4c-0.8,1.7-1.1,3.8-1.1,6.2
		c0,2.4,0.4,4.5,1.1,6.3c0.7,1.8,1.8,3.1,3.1,4.1c1.3,1,2.9,1.5,4.8,1.5c1.2,0,2.3-0.2,3.3-0.7c1-0.5,1.9-1.1,2.5-2
		c0.7-0.9,1.2-1.9,1.4-3.1h6.3c-0.2,2.2-0.9,4.1-2.1,5.8c-1.2,1.7-2.7,3-4.7,4S1294.1,939.4,1291.5,939.4z"/>
	<path class="st2" d="M1328.8,938.7v-44.4h16.3c3.1,0,5.8,0.5,7.8,1.5c2.1,1,3.6,2.4,4.6,4.2c1,1.8,1.5,3.7,1.5,5.9
		c0,1.8-0.3,3.4-1,4.7c-0.7,1.3-1.6,2.3-2.7,3c-1.1,0.8-2.4,1.3-3.7,1.7v0.4c1.5,0.1,2.9,0.5,4.3,1.4c1.4,0.9,2.6,2.1,3.5,3.7
		c0.9,1.6,1.4,3.6,1.4,5.9c0,2.3-0.5,4.3-1.6,6.1c-1.1,1.8-2.7,3.2-4.9,4.3c-2.2,1-5,1.6-8.5,1.6H1328.8z M1335.5,913.5h9
		c1.5,0,2.9-0.3,4.1-0.9c1.2-0.6,2.2-1.4,2.9-2.4c0.7-1,1.1-2.3,1.1-3.7c0-1.8-0.6-3.4-1.9-4.6c-1.3-1.2-3.3-1.9-5.9-1.9h-9.1V913.5
		z M1335.5,932.9h9.7c3.2,0,5.5-0.6,6.9-1.9c1.4-1.2,2.1-2.8,2.1-4.7c0-1.4-0.4-2.7-1.1-3.9c-0.7-1.2-1.7-2.1-3-2.8
		c-1.3-0.7-2.9-1-4.6-1h-9.9V932.9z"/>
	<path class="st2" d="M1368.7,938.7v-44.4h15.8c3.5,0,6.3,0.6,8.6,1.9c2.3,1.3,4,3,5.1,5.1c1.1,2.2,1.7,4.6,1.7,7.3
		c0,2.7-0.6,5.2-1.7,7.4c-1.1,2.2-2.8,3.9-5.1,5.2c-2.3,1.3-5.1,1.9-8.6,1.9h-10.9v-5.7h10.3c2.2,0,4-0.4,5.3-1.1
		c1.4-0.8,2.4-1.8,3-3.1c0.6-1.3,1-2.8,1-4.5c0-1.7-0.3-3.2-1-4.5c-0.6-1.3-1.6-2.3-3-3.1c-1.4-0.7-3.2-1.1-5.4-1.1h-8.4v38.6
		H1368.7z"/>
	<path class="st2" d="M1446.3,916.5c0,4.7-0.9,8.8-2.6,12.2c-1.7,3.4-4.1,6-7.1,7.8c-3,1.8-6.4,2.7-10.3,2.7
		c-3.8,0-7.3-0.9-10.3-2.7c-3-1.8-5.4-4.4-7.1-7.9c-1.7-3.4-2.6-7.5-2.6-12.2c0-4.7,0.9-8.8,2.6-12.2c1.7-3.4,4.1-6,7.1-7.8
		c3-1.8,6.4-2.7,10.3-2.7c3.8,0,7.2,0.9,10.3,2.7c3,1.8,5.4,4.4,7.1,7.8C1445.4,907.7,1446.3,911.8,1446.3,916.5z M1439.6,916.5
		c0-3.6-0.6-6.7-1.7-9.1c-1.2-2.5-2.8-4.4-4.8-5.6s-4.3-1.9-6.8-1.9c-2.6,0-4.8,0.6-6.8,1.9c-2,1.3-3.6,3.2-4.8,5.6
		c-1.2,2.5-1.7,5.5-1.7,9.1c0,3.6,0.6,6.7,1.7,9.1c1.2,2.5,2.7,4.4,4.8,5.6c2,1.3,4.3,1.9,6.8,1.9c2.5,0,4.8-0.6,6.8-1.9
		s3.6-3.2,4.8-5.6C1439.1,923.2,1439.6,920.1,1439.6,916.5z"/>
</g>
</svg>
