<?xml version="1.0" encoding="UTF-8"?>
<svg id="Layer_1" xmlns="http://www.w3.org/2000/svg" version="1.1" viewBox="0 0 600 600">
  <!-- Generator: Adobe Illustrator 30.5.1, SVG Export Plug-In . SVG Version: 2.1.4 Build 3)  -->
  <defs>
    <style>
      .st0 {
        fill: #20294f;
      }

      .st1 {
        fill: #e0e4e5;
      }
    </style>
  </defs>
  <path class="st0" d="M600,0H0v600h600V0Z"/>
  <path class="st1" d="M187.7,223.3l-10.6,21.8h-97.6v35.1h97.4l-10,21.8h-87.4v39.2h108.2l-6.9,21.8H55.4v-139.6h132.3Z"/>
  <path class="st1" d="M543.9,293.5c0,41.4-33.9,71.9-80.3,71.9s-80.3-30.6-80.3-71.9,33.9-71.9,80.3-71.9,80.3,29.9,80.3,71.9ZM408.5,293.5c0,29.8,22.4,50,55.4,50s55.4-20.2,55.4-50-22.4-50-55.4-50-55.4,19.7-55.4,50Z"/>
  <path class="st1" d="M69.4,504.2c6.9,9.8,16.1,17.7,26.8,23,10.7,5.3,22.5,7.8,34.3,7.3,24.6,0,42.3-8.4,42.3-20.8s-11.4-15.9-51.4-20.6c-34.8-4.1-59.6-9.8-59.6-37s24.3-43.6,62.5-43.6,57.7,11.7,69.4,29.9l-17.6,14.9c-10-15-29-23.3-52.4-23.3s-38.5,9.5-38.5,19.7,8.8,13.9,44.5,17.9c41.6,4.9,67.3,9.5,67.3,39.2s-29.5,45.3-66.7,45.3-65-14.1-77.7-35.6l16.6-16.2Z"/>
  <path class="st1" d="M300.5,436.1v106.8l-24.3,11v-117.8h-61.8v-21.8h148v21.8h-61.9Z"/>
  <path class="st1" d="M417.8,542.9l-24.3,11.1v-139.7h85.2c29.9,0,50.5,14.5,50.5,42.7.3,9.6-2.7,18.9-8.5,26.4-6,7.4-14.1,12.6-23.3,14.1l34.8,56.2h-27.7l-33.4-54h-53.6l.4,43.1ZM477.4,478.5c17.5,0,27.7-7.8,27.7-21.5s-10.1-21.5-27.7-21.5h-59.4v42.7h59.4v.3Z"/>
  <path class="st1" d="M281,363.7l.5.8h16.6l74.4-141.4h-17.9l-65,98.3-64.9-98.3h-18l74.2,140.6Z"/>
</svg>