<?xml version="1.0" encoding="utf-8"?>
<!-- Generator: Adobe Illustrator 25.4.1, SVG Export Plug-In . SVG Version: 6.00 Build 0)  -->
<svg version="1.1" id="Layer_1" xmlns="http://www.w3.org/2000/svg" xmlns:xlink="http://www.w3.org/1999/xlink" x="0px" y="0px"
	 viewBox="0 0 2304.9 615.3" style="enable-background:new 0 0 2304.9 615.3;" xml:space="preserve">
<style type="text/css">
	.st0{fill:#20294F;}
	.st1{fill:#E0E4E5;}
	.st2{fill:#FFFFFF;}
	.st3{fill:#333333;}
	.st4{fill:#F1EEE8;}
	.st5{fill:#202124;}
	.st6{fill:#F1EEE8;stroke:#F1EEE8;stroke-miterlimit:10;}
	.st7{opacity:0.66;}
	.st8{fill:none;stroke:#E0E4E5;stroke-width:0.5;stroke-miterlimit:10;}
	.st9{fill:#FFFFFF;stroke:#E0E4E5;stroke-width:0.5;stroke-miterlimit:10;}
	.st10{fill:#B7AB95;}
	.st11{fill:none;stroke:#1D1D1B;stroke-width:0.1;stroke-miterlimit:10;}
	.st12{fill:none;stroke:#1D1D1B;stroke-width:9.757406e-02;stroke-miterlimit:10;}
	.st13{fill:#4B4B4B;}
	.st14{fill:#A8A8A8;}
	.st15{fill:#886D34;}
</style>
<g>
	<path class="st0" d="M572.2,42H41v531.2h531.2V42z"/>
	<path class="st1" d="M207.3,239.7l-9.4,19.2h-86.5v31h86.2l-8.9,19.2h-77.3v34.8h95.8l-6.1,19.2h-111V239.7H207.3z"/>
	<path class="st1" d="M522.7,301.9c0,36.7-30,63.6-71,63.6c-41,0-71-27-71-63.6c0-36.7,30-63.6,71-63.6
		C492.7,238.3,522.7,264.8,522.7,301.9z M402.7,301.9c0,26.4,19.8,44.3,49,44.3c29.2,0,49-17.9,49-44.3s-19.8-44.3-49-44.3
		C422.6,257.6,402.7,275.1,402.7,301.9z"/>
	<path class="st1" d="M102.5,488.4c6.1,8.8,14.2,15.7,23.7,20.4c9.5,4.7,19.9,6.9,30.4,6.4c21.8,0,37.5-7.4,37.5-18.5
		c0-13-10.1-14.1-45.5-18.2c-30.9-3.6-52.8-8.8-52.8-32.8c0-22.4,21.5-38.7,55.3-38.7c26.9,0,51.1,10.3,61.4,26.5l-15.4,13.3
		c-8.9-13.3-25.7-20.7-46.5-20.7c-24,0-34.1,8.4-34.1,17.4c0,8.9,7.8,12.3,39.4,15.8c36.8,4.4,59.6,8.4,59.6,34.8
		c0,26.4-26.1,40.1-59,40.1c-29.8,0-57.5-12.5-68.8-31.5L102.5,488.4z"/>
	<path class="st1" d="M307.1,428.1v94.6l-21.5,9.7V428.1h-54.7v-19.2h131v19.2H307.1z"/>
	<path class="st1" d="M411,522.7l-21.5,9.8V408.9h75.4c26.5,0,44.8,12.9,44.8,37.8c0.2,8.5-2.4,16.8-7.5,23.4
		c-5.2,6.6-12.5,11.1-20.7,12.5l30.9,49.7h-24.6l-29.6-47.8h-47.4L411,522.7z M463.7,465.7c15.4,0,24.6-6.9,24.6-19
		c0-12-9-19-24.6-19H411v37.8h52.7V465.7z"/>
	<path class="st1" d="M289.8,364l0.5,0.7H305l65.9-125.1h-15.8l-57.5,87l-57.4-87h-15.9L289.8,364z"/>
</g>
<g>
	<path class="st0" d="M937.1,201.5v33.1H769v53.3h151.2v33.1H769v59.8h168v33.1h-205V201.5H937.1z"/>
	<path class="st0" d="M1077.2,413.8L968.4,201.5h40.5l90.5,176.9l90.5-176.9h40.2l-109.1,212.4H1077.2z"/>
	<path class="st0" d="M1490.1,307.6c0,63.1-52.7,109.5-124.9,109.5s-124.8-46.4-124.8-109.5s52.6-109.4,124.8-109.4
		S1490.1,244.6,1490.1,307.6z M1279.7,307.6c0,45.3,34.6,76.1,85.8,76.1c51.2,0,85.7-31.2,85.7-76.1s-34.5-76-85.7-76
		C1314.3,231.6,1279.7,262.1,1279.7,307.6z"/>
	<path class="st0" d="M1545,338.1c10.6,14.9,24.9,27,41.3,35.1c16.5,8.1,34.7,11.9,53,11.1c38.1,0,65.6-12.8,65.6-31.2
		c0-22.5-17.8-24.2-79.9-31.2c-54.1-6.2-92.6-15.1-92.6-56.5c0-38.4,37.9-66.5,97.1-66.5c47,0,89.6,17.7,107.6,45.5l-27.1,22.2
		c-15.4-22.8-45-35.5-81.9-35.5c-41.6,0-59.8,14.5-59.8,29.9c0,15.4,13.6,20.8,69.3,27.6c64.4,7.4,104,14.5,104,59.7
		c0,45.3-45.9,68.9-103.5,68.9c-52,0-100.8-21.5-120.7-53.8L1545,338.1z"/>
	<path class="st0" d="M1903.7,234.5v179.3h-37.6V234.5h-95.8v-33.1h229.5v33.1H1903.7z"/>
	<path class="st0" d="M2085.8,413.8h-37.9V201.5h132.2c46.4,0,78.3,22.2,78.3,65c0.5,14.5-4.2,28.8-13.3,40.1s-22,19-36.3,21.7
		l55,85.5h-43.3l-52-82.2h-83.2L2085.8,413.8z M2178.1,299.4c27.3,0,43.2-11.9,43.2-32.6c0-20.7-15.9-32.5-43.2-32.5h-92.3v65
		H2178.1z"/>
</g>
</svg>
